<svg width="88" height="76" viewBox="0 0 88 76" fill="none" xmlns="http://www.w3.org/2000/svg">
<path fill-rule="evenodd" clip-rule="evenodd" d="M4.96625 0.125078C3.33714 0.453813 1.90863 1.50709 1.14146 2.94523C1.10236 3.01852 1.0661 3.07731 1.03247 3.13184C1.01427 3.16135 0.996833 3.18962 0.980139 3.21826C0.602622 3.86587 0.602713 4.70388 0.604877 24.4918C0.605054 26.1071 0.605244 27.8487 0.605244 29.7267C0.605244 31.6752 0.605027 33.4771 0.604826 35.1437C0.602455 54.7983 0.602353 55.6419 0.987767 56.286C1.00502 56.3148 1.02305 56.3433 1.04188 56.373L1.04199 56.3731C1.07764 56.4294 1.11619 56.4902 1.15786 56.5668C1.92666 57.9815 3.20095 58.936 4.84167 59.3262C5.50446 59.4839 5.97779 59.4893 19.2039 59.4893C32.1935 59.4893 32.8775 59.4967 32.8166 59.6368C32.7813 59.7178 32.6721 60.0118 32.5738 60.2898C31.5087 63.306 28.8955 70.7244 28.6034 71.5609L28.2283 72.6353L23.9985 72.6371C20.0678 72.6388 19.7423 72.6501 19.3969 72.796C18.2809 73.2674 17.9751 74.5847 18.7874 75.4211C18.8363 75.4713 18.8675 75.5173 18.8961 75.5594C18.9115 75.5822 18.9262 75.6038 18.9425 75.6243C19.2513 76.0144 20.1313 76.0134 37.7336 75.9931L37.759 75.993L37.8114 75.993L37.9174 75.9929C39.5828 75.9909 41.3965 75.9889 43.3718 75.9869L66.8843 75.9639L67.2682 75.7216C67.7875 75.394 68.1488 74.7203 68.0854 74.1976C68.0218 73.6721 67.7571 73.247 67.3029 72.9409L66.9119 72.6774L62.4357 72.6541C59.2996 72.6377 57.9595 72.6034 57.9595 72.5395C57.9595 72.4893 57.1608 70.1866 56.1846 67.4224C53.5578 59.984 53.4291 59.6165 53.4291 59.5515C53.4291 59.5186 60.1058 59.4817 68.266 59.4695L83.1029 59.4472L83.6932 59.2602C85.3511 58.7354 86.6391 57.5621 87.305 55.9704L87.5427 55.4022L87.5661 29.9576C87.568 27.8278 87.5701 25.8723 87.572 24.0764C87.5927 4.82516 87.5937 3.91274 87.1853 3.20453C87.165 3.1693 87.1436 3.13457 87.1212 3.09811L87.1212 3.09802L87.121 3.09781L87.1208 3.09748L87.1208 3.09735L87.1206 3.09711C87.0788 3.02909 87.0334 2.955 86.9839 2.86037C86.7347 2.38375 86.4733 2.06192 85.9203 1.55108C85.0821 0.777155 84.405 0.408813 83.3661 0.161652C82.6743 -0.00284187 82.222 -0.00469675 44.1048 0.00187625C11.6499 0.00752229 5.4519 0.0270732 4.96625 0.125078ZM83.7124 4.33795C83.5425 4.05009 83.3262 3.83975 83.0194 3.6638L82.5735 3.40812L44.1886 3.3868L5.80364 3.3654L5.31164 3.59748C4.98926 3.7495 4.72569 3.95545 4.54719 4.19478L4.27483 4.56008L4.22952 9.12452C4.20461 11.635 4.19455 20.638 4.20714 29.1313L4.22998 44.5736H33.6807C62.4824 44.5736 63.1387 44.5772 63.4675 44.7344C64.1652 45.0683 64.4767 45.54 64.4953 46.2916C64.5122 46.9724 64.1006 47.5321 63.3761 47.8135C63.074 47.9309 60.0132 47.9444 33.6315 47.9444H4.22373L4.24928 51.4344L4.27483 54.9244L4.54719 55.2897C4.72551 55.5289 4.98926 55.735 5.31101 55.8868L5.80237 56.1185L44.0902 56.1177L82.3781 56.1168L82.8383 55.9176C83.0913 55.808 83.3907 55.6093 83.5034 55.476C83.9585 54.9379 83.9637 54.8909 83.9637 51.3071V47.9487L77.5079 47.9255C71.2388 47.9029 71.0433 47.8974 70.7447 47.7337C70.5755 47.641 70.3105 47.4195 70.1557 47.2413C69.8945 46.9408 69.8743 46.8702 69.8743 46.2574C69.8743 45.5215 69.9665 45.3434 70.5907 44.8735L70.9331 44.6158L77.4483 44.5925L83.9637 44.5693L83.9616 24.6628L83.9594 4.75643L83.7124 4.33795ZM19.8592 6.6085C19.8094 6.62459 19.6596 6.65999 19.5264 6.68721C19.1831 6.7574 18.7508 7.12069 18.5285 7.52602C18.0914 8.32279 18.4253 9.33191 19.2619 9.74281C19.6401 9.92862 19.7538 9.93899 21.4138 9.93899C22.3777 9.93899 23.1664 9.96848 23.1664 10.0046C23.1664 10.0407 22.5548 12.6278 21.8073 15.7536C21.0598 18.8794 20.4482 21.4475 20.4482 21.4604C20.4482 21.4733 19.88 21.4839 19.1856 21.4839C17.829 21.4839 17.5566 21.5382 17.1523 21.8895C16.6121 22.3588 16.5562 22.6084 16.5541 24.5653C16.552 26.4151 16.6153 26.9725 16.9318 27.8883C17.3549 29.1126 18.0472 30.1191 19.1154 31.0628C20.3631 32.1651 21.9451 32.8368 23.7296 33.0218C24.8331 33.1363 27.9363 33.1392 28.991 33.0268C31.7628 32.7314 34.051 31.2264 35.3297 28.8574C35.9628 27.6846 36.052 27.2363 36.0997 24.9875C36.1469 22.7609 36.1091 22.5094 35.6537 22.027C35.2086 21.5556 35.1067 21.5294 33.5409 21.4839L32.0912 21.4417L30.0368 15.7536C28.907 12.6251 27.9793 10.037 27.9755 10.0022C27.9717 9.96739 29.3956 9.93899 31.1398 9.93899H34.3111V10.9791C34.3111 11.9055 34.3342 12.0598 34.522 12.3906C34.6551 12.625 34.8807 12.8464 35.1336 12.9908L35.5342 13.2197L38.3431 13.2436C41.0905 13.2671 41.1514 13.2713 41.1319 13.4362C41.0194 14.3804 40.7157 16.8573 40.6513 17.3547C40.6063 17.7023 40.4881 18.6314 40.3886 19.4193C38.8585 31.5394 38.1104 37.4225 38.0687 37.6636L38.0177 37.9585H32.3815C27.3046 37.9585 26.7182 37.9723 26.4716 38.0981C25.0888 38.8037 25.0791 40.4821 26.4538 41.181C26.7287 41.3208 27.7185 41.3305 43.7795 41.3503C55.9358 41.3654 60.9563 41.3448 61.3119 41.2783C61.7236 41.2014 61.8827 41.1159 62.2263 40.7868C62.6403 40.3903 62.7637 40.1089 62.7597 39.5702C62.7552 38.9825 62.1069 38.1772 61.5142 38.0229C61.378 37.9875 58.7675 37.9585 55.7131 37.9585C50.2324 37.9585 50.159 37.9563 50.1221 37.79C50.1014 37.6973 49.4086 32.2366 48.5825 25.6552C47.7563 19.0738 47.0588 13.5877 47.0326 13.4638L46.9848 13.2387L49.745 13.2332C51.4769 13.2297 52.6013 13.194 52.7633 13.1372C53.115 13.0138 53.5971 12.5696 53.7533 12.225C53.8403 12.0332 53.8822 11.6158 53.8822 10.9399V9.93899H56.293H58.704L58.6541 10.1286C58.5357 10.5792 55.9661 21.3833 55.9661 21.4311C55.9661 21.4601 55.394 21.4839 54.6947 21.4839C53.8146 21.4839 53.3336 21.5197 53.1318 21.6002C52.7764 21.742 52.2966 22.1999 52.1662 22.5216C52.0183 22.8866 52.0425 26.3071 52.1984 27.0649C52.7738 29.8616 55.0842 32.1145 58.1407 32.8591C58.8048 33.0209 59.2235 33.0527 61.183 33.0904C62.6677 33.119 63.7825 33.0992 64.3996 33.0331C67.7474 32.6751 70.3643 30.6485 71.3372 27.6606C71.5617 26.9711 71.5814 26.781 71.6197 24.9458C71.6641 22.812 71.6234 22.5202 71.2196 22.0738C70.7608 21.5667 70.4417 21.4839 68.9469 21.4839H67.6044L65.5768 15.8168C64.4615 12.6998 63.5307 10.1023 63.5082 10.0443C63.4763 9.9625 63.8345 9.93899 65.1114 9.93899C66.5841 9.93899 66.7931 9.92121 67.1156 9.76817C67.8521 9.41871 68.2363 8.59034 68.0155 7.82771C67.878 7.35243 67.2885 6.79052 66.7934 6.66268C66.3023 6.53586 52.0814 6.53114 51.5919 6.65754C51.1465 6.77257 50.6344 7.19602 50.4269 7.62082C50.2991 7.88248 50.2614 8.17254 50.2599 8.90669L50.2579 9.85472H44.0966H37.9353L37.9348 8.99096C37.9342 7.95908 37.8373 7.58914 37.4639 7.19366C37.4248 7.1522 37.3913 7.11368 37.3601 7.07789L37.3601 7.07781L37.36 7.07771L37.3599 7.07762C37.3134 7.02412 37.2722 6.97672 37.2254 6.93471C36.8615 6.6081 36.1598 6.60703 30.0034 6.59767C29.4725 6.59686 28.901 6.59599 28.2857 6.59485C23.701 6.58634 19.9091 6.59249 19.8592 6.6085ZM7.67259 29.7423V31.4312L9.46208 31.4083L11.2516 31.3855V29.7423V28.099L9.46208 28.0762L7.67259 28.0533V29.7423ZM7.67259 34.672V36.3153H9.48473H11.2969V34.672V33.0288H9.48473H7.67259V34.672ZM7.67259 39.6439V41.2871H9.48473H11.2969V39.6439V38.0006H9.48473H7.67259V39.6439ZM42.4204 49.6626C41.6718 49.9667 41.2012 50.6209 41.2012 51.3573C41.2012 52.9731 43.2677 53.7628 44.4901 52.6141C45.1971 51.9497 45.2606 51.1066 44.6655 50.2857C44.2256 49.6788 43.1294 49.3745 42.4204 49.6626ZM28.239 21.4207C28.2397 21.4555 27.323 21.4839 26.2017 21.4839C25.0805 21.4839 24.1631 21.4739 24.1631 21.4617C24.1631 21.4331 25.682 15.1058 25.7558 14.8266C25.7973 14.6703 26.1244 15.4852 27.0246 17.9867C27.6918 19.8406 28.2382 21.3859 28.239 21.4207ZM63.7423 21.3785C63.7262 21.3206 63.183 19.7864 62.5351 17.9692C61.8873 16.1519 61.3267 14.6635 61.2893 14.6616C61.2519 14.6597 61.2213 14.7255 61.2213 14.8079C61.2213 14.8903 60.8998 16.3028 60.5067 17.9469C60.1137 19.591 59.7638 21.0593 59.7293 21.21L59.6666 21.4839H61.7191C63.3163 21.4839 63.7651 21.4605 63.7423 21.3785ZM49.6647 59.721C49.698 59.8485 50.4549 62.0195 51.3466 64.5454C53.8134 71.5327 54.1529 72.5036 54.1534 72.5721C54.1537 72.6068 49.1753 72.6353 43.0902 72.6353C34.2766 72.6353 32.0353 72.6139 32.0697 72.53C32.116 72.4171 34.7297 65.0232 35.9422 61.575L36.6757 59.4893H43.1398H49.604L49.6647 59.721ZM30.0525 29.2643C31.6082 28.5578 32.4989 27.1911 32.4989 25.5111V24.8546H26.3376H20.1764V25.4404C20.1764 27.1625 21.0721 28.5571 22.6356 29.2693C23.4928 29.6598 24.1167 29.7389 26.3376 29.7389C28.5652 29.7389 29.1808 29.6603 30.0525 29.2643ZM67.9949 25.6763C67.89 27.5456 66.8025 28.9148 64.945 29.5162C64.5193 29.6541 64.109 29.687 62.3884 29.7211C59.8688 29.7711 59.0677 29.6879 58.186 29.2848C57.3806 28.9166 56.8907 28.5251 56.4265 27.8785C55.9266 27.1823 55.6943 26.4473 55.6943 25.5621V24.8546H61.8677H68.041L67.9949 25.6763ZM45.3198 28.731C44.6969 23.8091 44.1872 19.6743 44.1872 19.5425C44.1872 19.4107 44.1464 19.2794 44.0966 19.2507C44.0442 19.2207 44.006 19.3011 44.006 19.4418C44.006 19.5754 43.6168 22.7536 43.1412 26.5043C42.0387 35.1974 41.8457 36.7385 41.7761 37.4108L41.7193 37.9585H44.0859C46.2264 37.9585 46.4525 37.9452 46.4525 37.8192C46.4524 37.7426 45.9427 33.6529 45.3198 28.731Z" fill="url(#paint0_linear_4030_4108)"/>
<defs>
<linearGradient id="paint0_linear_4030_4108" x1="0.604492" y1="18.0148" x2="90.8802" y2="33.0122" gradientUnits="userSpaceOnUse">
<stop stop-color="#FC7A7A"/>
<stop offset="1" stop-color="#FF0000"/>
</linearGradient>
</defs>
</svg>
