<svg width="294" height="322" viewBox="0 0 294 322" fill="none" xmlns="http://www.w3.org/2000/svg">
<g filter="url(#filter0_f_419_2597)">
<path d="M248.216 205.057C263.787 214.172 263.998 228.798 248.426 237.913L175.408 280.732C159.836 289.847 134.585 289.847 119.013 280.732L45.7845 237.913C30.2128 228.798 30.0024 214.172 45.574 205.057L118.382 162.449C133.953 153.335 159.205 153.335 174.776 162.449L248.216 205.057Z" fill="url(#paint0_radial_419_2597)"/>
</g>
<g clip-path="url(#clip0_419_2597)">
<path d="M248.216 172.039L175.408 214.75C159.836 223.842 134.585 223.842 119.013 214.75L45.784 172.039C37.9981 167.599 34 161.679 34 155.547V164.005C34 169.925 37.9981 176.057 45.784 180.497L119.013 223.208C134.585 232.3 159.836 232.3 175.408 223.208L248.216 180.708C256.002 176.268 259.79 170.348 259.79 164.427V155.97C259.79 161.679 256.002 167.599 248.216 172.039Z" fill="url(#paint1_linear_419_2597)"/>
<path d="M248.216 139.266C263.787 148.358 263.998 162.947 248.426 172.039L175.407 214.751C159.836 223.843 134.584 223.843 119.013 214.751L45.7835 172.039C30.2118 162.947 30.0014 148.358 45.5731 139.266L118.381 96.7663C133.953 87.6743 159.204 87.6743 174.776 96.7663L248.216 139.266Z" fill="#F5FBFF"/>
</g>
<path d="M87.6094 15.6673C85.4804 16.8982 83.6386 19.3737 82.7541 21.9449C82.1914 22.0081 81.6496 22.1949 81.1676 22.492L80.8257 22.7017C78.9027 24.1135 77.5967 26.2112 77.1786 28.56C77.0751 29.1634 77.0751 29.7801 77.1786 30.3835C77.1836 30.4415 77.1726 30.4998 77.1469 30.552C77.1212 30.6043 77.0817 30.6485 77.0327 30.6799L74.8261 31.9427C74.3222 32.2717 73.9028 32.7146 73.6018 33.2358C73.3009 33.7569 73.1268 34.3416 73.0938 34.9425C73.0938 36.0457 73.8779 36.4925 74.8398 35.9363L96.3215 23.5315C96.8272 23.2044 97.248 22.7619 97.5492 22.2403C97.8504 21.7188 98.0234 21.1332 98.0539 20.5317C98.0539 19.4284 97.2698 18.9862 96.3124 19.5424L92.7929 21.5711C92.6835 21.6349 92.6106 21.5711 92.6516 21.4161C92.9742 20.3927 93.1071 19.3189 93.0437 18.2476C92.8112 15.339 90.6593 14.1446 88.0288 15.453C87.8784 15.5168 87.7416 15.5898 87.6094 15.6673Z" fill="#E6E6E6"/>
<path d="M70.8187 12.9319C69.24 13.9527 68.0577 15.4825 67.4679 17.2675C67.0801 17.31 66.7065 17.4376 66.3738 17.6413C66.2921 17.6871 66.2129 17.7374 66.1367 17.7918C64.8058 18.7637 63.9024 20.2127 63.6156 21.8355C63.5448 22.2504 63.5448 22.6743 63.6156 23.0892C63.6194 23.1294 63.612 23.1697 63.5943 23.2059C63.5766 23.2421 63.5493 23.2727 63.5153 23.2944L61.9972 24.1697C61.6496 24.3967 61.3603 24.7024 61.1528 25.062C60.9453 25.4215 60.8254 25.8249 60.8027 26.2395C60.8027 27.0008 61.3452 27.3063 62.0063 26.9233L76.832 18.3616C77.1796 18.1346 77.4688 17.829 77.6763 17.4694C77.8838 17.1098 78.0038 16.7064 78.0264 16.2919C78.0264 15.5305 77.4839 15.2251 76.8228 15.608L74.4157 17.0076C74.3382 17.0532 74.2881 17.0076 74.3154 16.9028C74.5382 16.1959 74.6293 15.4542 74.5844 14.7145C74.4248 12.7085 72.9386 11.8834 71.1105 12.786L70.8187 12.9319Z" fill="#E6E6E6"/>
<path d="M80.4659 164.598L86.7891 168.382C87.2709 168.672 87.8225 168.825 88.3847 168.825C88.947 168.825 89.4986 168.672 89.9804 168.382L141.391 137.596C141.552 137.497 141.684 137.36 141.776 137.196C141.868 137.032 141.916 136.847 141.916 136.659C141.916 136.471 141.868 136.286 141.776 136.122C141.684 135.958 141.552 135.82 141.391 135.722L135.05 131.938C134.568 131.648 134.017 131.495 133.454 131.495C132.892 131.495 132.341 131.648 131.859 131.938L80.4659 162.738C80.3086 162.837 80.179 162.974 80.0891 163.137C79.9993 163.3 79.9521 163.482 79.9521 163.668C79.9521 163.854 79.9993 164.037 80.0891 164.199C80.179 164.362 80.3086 164.499 80.4659 164.598V164.598Z" fill="#E0E0E0"/>
<path d="M200.133 155.335C210.755 161.471 210.814 171.414 200.26 177.546C189.707 183.678 172.538 183.682 161.915 177.546C151.293 171.41 151.234 161.471 161.788 155.335C172.342 149.199 189.51 149.203 200.133 155.335Z" fill="#E0E0E0"/>
<path d="M74.042 131.045C72.8703 129.923 71.5254 128.697 71.4434 127.074C71.4479 126.348 71.6738 125.641 72.0909 125.047C72.508 124.454 73.0964 124.001 73.7775 123.751C74.4644 123.519 75.191 123.427 75.9139 123.482C76.6369 123.537 77.3413 123.737 77.9854 124.07C79.2681 124.748 80.4111 125.662 81.3545 126.764C84.1927 129.918 86.2472 133.697 87.3514 137.794C88.4556 141.89 88.5783 146.19 87.7096 150.343C87.5911 150.89 87.4088 151.496 86.9164 151.756C86.1322 152.171 85.2387 151.442 84.7007 150.735C83.5342 149.186 82.6527 147.441 82.0976 145.583C81.6417 144.01 81.8423 142.278 81.2496 140.796C79.7999 137.163 76.832 133.712 74.042 131.045Z" fill="#E80537"/>
<path d="M74.042 131.045C72.8703 129.923 71.5254 128.697 71.4434 127.074C71.4479 126.348 71.6738 125.641 72.0909 125.047C72.508 124.454 73.0964 124.001 73.7775 123.751C74.4644 123.519 75.191 123.427 75.9139 123.482C76.6369 123.537 77.3413 123.737 77.9854 124.07C79.2681 124.748 80.4111 125.662 81.3545 126.764C84.1927 129.918 86.2472 133.697 87.3514 137.794C88.4556 141.89 88.5783 146.19 87.7096 150.343C87.5911 150.89 87.4088 151.496 86.9164 151.756C86.1322 152.171 85.2387 151.442 84.7007 150.735C83.5342 149.186 82.6527 147.441 82.0976 145.583C81.6417 144.01 81.8423 142.278 81.2496 140.796C79.7999 137.163 76.832 133.712 74.042 131.045Z" fill="#E80537"/>
<path d="M86.2322 149.636C86.1911 149.636 86.1504 149.628 86.1125 149.612C86.0746 149.596 86.0402 149.573 86.0114 149.543C85.9825 149.514 85.9598 149.479 85.9445 149.441C85.9292 149.403 85.9216 149.362 85.9222 149.321C85.8838 144.772 84.8339 140.288 82.8484 136.195C80.8629 132.102 77.9917 128.502 74.4428 125.656C74.4086 125.63 74.3801 125.597 74.3587 125.56C74.3374 125.523 74.3238 125.482 74.3187 125.439C74.3136 125.397 74.3171 125.354 74.329 125.313C74.3409 125.271 74.361 125.233 74.3881 125.2C74.4147 125.167 74.4476 125.139 74.4849 125.118C74.5223 125.098 74.5633 125.085 74.6056 125.08C74.648 125.075 74.6908 125.079 74.7318 125.091C74.7727 125.103 74.8108 125.123 74.844 125.15C78.468 128.055 81.3996 131.731 83.4262 135.91C85.4528 140.089 86.5234 144.667 86.5605 149.312C86.5618 149.355 86.5541 149.398 86.538 149.438C86.5219 149.479 86.4977 149.515 86.4669 149.545C86.4361 149.576 86.3994 149.6 86.359 149.615C86.3186 149.631 86.2754 149.638 86.2322 149.636V149.636Z" fill="white"/>
<path d="M82.3889 162.073C80.4149 162.707 77.9394 162.292 76.7951 160.559C75.4274 158.526 76.2891 155.39 74.4883 153.721C73.4808 152.809 71.9991 152.709 70.6633 152.435C69.3276 152.162 67.8459 151.419 67.6453 150.069C67.3809 148.282 69.5783 146.796 69.2729 145.013C68.9674 143.231 66.5375 142.707 65.8218 141.075C65.1698 139.588 66.3232 137.788 67.855 137.231C69.3868 136.675 71.0873 137.058 72.61 137.623C74.1327 138.189 75.6144 138.936 77.2282 139.137C78.8421 139.338 80.848 139.014 82.0789 140.167C83.7293 141.708 82.7856 144.649 84.0575 146.509C84.9146 147.758 86.5239 148.191 87.7548 149.066C88.5199 149.622 89.1409 150.353 89.566 151.197C89.9911 152.042 90.2079 152.976 90.1984 153.922C90.1574 155.969 89.0815 157.45 87.5314 158.626C85.8902 159.903 84.445 161.416 82.3889 162.073Z" fill="#E80537"/>
<path opacity="0.3" d="M82.3889 162.073C80.4149 162.707 77.9394 162.292 76.7951 160.559C75.4274 158.526 76.2891 155.39 74.4883 153.721C73.4808 152.809 71.9991 152.709 70.6633 152.435C69.3276 152.162 67.8459 151.419 67.6453 150.069C67.3809 148.282 69.5783 146.796 69.2729 145.013C68.9674 143.231 66.5375 142.707 65.8218 141.075C65.1698 139.588 66.3232 137.788 67.855 137.231C69.3868 136.675 71.0873 137.058 72.61 137.623C74.1327 138.189 75.6144 138.936 77.2282 139.137C78.8421 139.338 80.848 139.014 82.0789 140.167C83.7293 141.708 82.7856 144.649 84.0575 146.509C84.9146 147.758 86.5239 148.191 87.7548 149.066C88.5199 149.622 89.1409 150.353 89.566 151.197C89.9911 152.042 90.2079 152.976 90.1984 153.922C90.1574 155.969 89.0815 157.45 87.5314 158.626C85.8902 159.903 84.445 161.416 82.3889 162.073Z" fill="black"/>
<path d="M81.4998 148.073L81.477 148.041C81.1807 147.612 80.8752 147.188 80.5652 146.783C77.6436 143.163 73.6812 140.528 69.2134 139.233C69.1727 139.217 69.129 139.209 69.0851 139.211C69.0413 139.213 68.9983 139.224 68.959 139.243C68.9196 139.263 68.8847 139.29 68.8566 139.324C68.8284 139.357 68.8076 139.396 68.7955 139.438C68.7833 139.481 68.7802 139.525 68.7861 139.568C68.7921 139.612 68.8071 139.653 68.8301 139.691C68.8532 139.728 68.8838 139.76 68.9199 139.785C68.9561 139.81 68.9971 139.827 69.0402 139.835C73.3843 141.093 77.2371 143.655 80.0774 147.175C80.164 147.284 80.2415 147.407 80.3281 147.517C76.7904 146.217 73.1797 146.956 71.2559 148.506C71.2213 148.532 71.1924 148.564 71.1712 148.602C71.1499 148.639 71.1367 148.681 71.1324 148.724C71.1281 148.767 71.1328 148.81 71.1462 148.851C71.1596 148.892 71.1815 148.93 71.2103 148.962C71.2357 148.997 71.2681 149.026 71.3054 149.048C71.3427 149.069 71.3842 149.083 71.4271 149.088C71.47 149.092 71.5135 149.088 71.5546 149.075C71.5958 149.062 71.6338 149.04 71.6662 149.012C73.5718 147.476 77.5062 146.792 81.0712 148.52C83.289 151.793 84.5864 155.601 84.8278 159.548C84.8325 159.627 84.8672 159.701 84.9248 159.755C84.9824 159.809 85.0587 159.84 85.1378 159.839V159.839C85.1789 159.838 85.2193 159.828 85.2566 159.81C85.2938 159.793 85.3272 159.768 85.3548 159.737C85.3824 159.707 85.4036 159.671 85.4172 159.632C85.4309 159.593 85.4366 159.552 85.4341 159.511C85.1812 155.413 83.8215 151.46 81.4998 148.073Z" fill="white"/>
<path d="M202.389 141.038C203.342 140.126 204.431 139.132 204.495 137.819C204.493 137.23 204.31 136.657 203.972 136.175C203.633 135.693 203.156 135.327 202.603 135.125C202.046 134.935 201.456 134.86 200.869 134.905C200.282 134.95 199.71 135.113 199.188 135.384C198.145 135.931 197.217 136.672 196.453 137.568C194.146 140.128 192.476 143.197 191.579 146.524C190.682 149.851 190.584 153.343 191.292 156.716C191.314 156.942 191.382 157.161 191.494 157.359C191.605 157.557 191.757 157.729 191.94 157.865C192.578 158.202 193.307 157.609 193.736 157.035C194.684 155.777 195.399 154.36 195.847 152.85C196.23 151.578 196.056 150.169 196.535 148.97C197.716 146.007 200.123 143.203 202.389 141.038Z" fill="#E80537"/>
<path d="M192.492 156.124C192.56 156.124 192.625 156.097 192.673 156.049C192.721 156.001 192.748 155.936 192.748 155.869C192.778 152.177 193.631 148.538 195.242 145.217C196.854 141.896 199.185 138.975 202.066 136.666C202.109 136.622 202.135 136.563 202.138 136.501C202.141 136.439 202.121 136.379 202.083 136.33C202.044 136.282 201.989 136.249 201.928 136.238C201.868 136.226 201.805 136.238 201.751 136.27C198.812 138.627 196.434 141.61 194.79 145C193.146 148.391 192.277 152.105 192.246 155.873C192.247 155.938 192.273 156.001 192.319 156.048C192.365 156.094 192.427 156.122 192.492 156.124V156.124Z" fill="white"/>
<path d="M195.614 166.212C197.219 166.728 199.23 166.39 200.173 164.986C201.263 163.336 200.584 160.792 202.042 159.456C202.863 158.713 204.062 158.635 205.147 158.412C206.232 158.189 207.426 157.591 207.595 156.497C207.809 155.043 206.027 153.839 206.278 152.394C206.528 150.949 208.493 150.525 209.077 149.203C209.606 147.995 208.667 146.532 207.426 146.085C206.186 145.638 204.805 145.943 203.57 146.399C202.334 146.855 201.131 147.466 199.822 147.626C198.514 147.785 196.886 147.525 195.888 148.465C194.547 149.714 195.313 152.112 194.279 153.612C193.586 154.624 192.282 154.979 191.283 155.681C190.661 156.132 190.157 156.725 189.812 157.412C189.467 158.098 189.291 158.857 189.3 159.625C189.332 161.284 190.212 162.483 191.461 163.441C192.779 164.453 193.968 165.684 195.614 166.212Z" fill="#E80537"/>
<path opacity="0.3" d="M195.614 166.212C197.219 166.728 199.23 166.39 200.173 164.986C201.263 163.336 200.584 160.792 202.042 159.456C202.863 158.713 204.062 158.635 205.147 158.412C206.232 158.189 207.426 157.591 207.595 156.497C207.809 155.043 206.027 153.839 206.278 152.394C206.528 150.949 208.493 150.525 209.077 149.203C209.606 147.995 208.667 146.532 207.426 146.085C206.186 145.638 204.805 145.943 203.57 146.399C202.334 146.855 201.131 147.466 199.822 147.626C198.514 147.785 196.886 147.525 195.888 148.465C194.547 149.714 195.313 152.112 194.279 153.612C193.586 154.624 192.282 154.979 191.283 155.681C190.661 156.132 190.157 156.725 189.812 157.412C189.467 158.098 189.291 158.857 189.3 159.625C189.332 161.284 190.212 162.483 191.461 163.441C192.779 164.453 193.968 165.684 195.614 166.212Z" fill="black"/>
<path d="M196.339 154.856V154.829C196.581 154.482 196.827 154.14 197.092 153.812C199.465 150.873 202.687 148.736 206.319 147.694C206.384 147.676 206.453 147.684 206.512 147.716C206.571 147.748 206.614 147.803 206.633 147.867C206.642 147.9 206.645 147.933 206.641 147.967C206.637 148 206.626 148.032 206.61 148.061C206.593 148.091 206.571 148.116 206.545 148.137C206.518 148.158 206.488 148.173 206.456 148.182C202.933 149.198 199.809 151.274 197.506 154.127C197.434 154.218 197.37 154.314 197.301 154.405C200.169 153.347 203.096 153.949 204.659 155.207C204.701 155.24 204.732 155.285 204.747 155.336C204.762 155.387 204.76 155.442 204.743 155.492C204.725 155.542 204.692 155.586 204.649 155.616C204.605 155.647 204.553 155.663 204.5 155.663C204.441 155.663 204.385 155.642 204.34 155.604C202.795 154.359 199.604 153.808 196.709 155.207C194.902 157.864 193.842 160.958 193.641 164.165C193.636 164.23 193.607 164.29 193.56 164.334C193.512 164.378 193.45 164.403 193.385 164.403V164.403C193.352 164.401 193.319 164.392 193.289 164.378C193.259 164.363 193.232 164.343 193.21 164.318C193.188 164.293 193.171 164.264 193.161 164.232C193.15 164.2 193.146 164.167 193.148 164.134C193.352 160.809 194.455 157.602 196.339 154.856V154.856Z" fill="white"/>
<path d="M159.668 42.456C159.878 42.3329 160.047 42.456 160.047 42.6748V45.2324C160.04 45.3632 160.002 45.4905 159.936 45.6038C159.87 45.7171 159.778 45.8132 159.668 45.8843C159.459 46.0074 159.29 45.8843 159.29 45.67V43.1125C159.297 42.981 159.335 42.8531 159.401 42.7391C159.467 42.625 159.558 42.528 159.668 42.456V42.456Z" fill="#E80537"/>
<path d="M154.803 47.3155C154.846 47.2863 154.897 47.2707 154.949 47.2707C155.001 47.2707 155.052 47.2863 155.095 47.3155L156.531 48.4461C156.668 48.5555 156.645 48.8427 156.486 49.0889C156.426 49.1878 156.343 49.2707 156.244 49.3305C156.201 49.3603 156.15 49.3763 156.098 49.3763C156.046 49.3763 155.995 49.3603 155.952 49.3305L154.516 48.1999C154.379 48.0905 154.398 47.8033 154.562 47.5571C154.622 47.4587 154.705 47.3759 154.803 47.3155V47.3155Z" fill="#E80537"/>
<path d="M153.117 50.6158C153.17 50.5922 153.228 50.5827 153.286 50.5885L155.219 50.7571C155.401 50.7571 155.465 51.0033 155.36 51.2723C155.296 51.4385 155.181 51.5804 155.032 51.678C154.975 51.7146 154.908 51.7322 154.84 51.7282L152.907 51.5641C152.729 51.5641 152.666 51.3179 152.77 51.0489C152.832 50.8685 152.954 50.7153 153.117 50.6158V50.6158Z" fill="#E80537"/>
<path d="M155.063 56.9714C155.195 56.8939 155.323 56.8985 155.391 56.9988C155.436 57.1125 155.447 57.2366 155.423 57.3563C155.398 57.476 155.34 57.5862 155.255 57.6735L153.331 60.0669C153.279 60.1327 153.216 60.1883 153.144 60.2311C153.012 60.3086 152.884 60.304 152.811 60.2037C152.767 60.0899 152.757 59.966 152.781 59.8465C152.806 59.727 152.863 59.6169 152.948 59.529L154.872 57.1356C154.925 57.0696 154.99 57.014 155.063 56.9714V56.9714Z" fill="#E80537"/>
<path d="M154.421 55.307C154.603 55.2067 154.763 55.2615 154.794 55.4529C154.803 55.5831 154.779 55.7133 154.726 55.8324C154.673 55.9515 154.591 56.056 154.489 56.1368L152.296 57.8464L152.232 57.892C152.05 57.9968 151.89 57.9421 151.858 57.7461C151.849 57.6157 151.872 57.4851 151.925 57.3658C151.979 57.2465 152.061 57.1422 152.164 57.0622L154.352 55.3526L154.421 55.307Z" fill="#E80537"/>
<path d="M164.569 41.681C164.604 41.6563 164.645 41.6399 164.687 41.6328C164.73 41.6257 164.773 41.6281 164.815 41.6399C164.974 41.7038 164.997 41.9636 164.865 42.228L163.438 45.0135C163.373 45.1468 163.272 45.2591 163.146 45.3372C163.11 45.3608 163.07 45.3766 163.027 45.3836C162.985 45.3907 162.942 45.3889 162.9 45.3783C162.74 45.3144 162.718 45.05 162.854 44.7856L164.277 42.0046C164.34 41.8705 164.442 41.7579 164.569 41.681V41.681Z" fill="#E80537"/>
<path d="M162.281 41.4709C162.321 41.4477 162.366 41.4322 162.413 41.4253C162.609 41.3934 162.709 41.5848 162.641 41.8538L161.884 44.694C161.832 44.8972 161.705 45.0731 161.528 45.1864C161.489 45.2108 161.446 45.2278 161.401 45.2365C161.205 45.2685 161.1 45.077 161.173 44.808L161.925 41.9678C161.978 41.7639 162.105 41.5869 162.281 41.4709V41.4709Z" fill="#E80537"/>
<g opacity="0.2">
<path opacity="0.2" d="M159.668 42.456C159.878 42.3329 160.047 42.456 160.047 42.6749V45.2324C160.04 45.3632 160.002 45.4905 159.936 45.6038C159.87 45.7171 159.778 45.8133 159.668 45.8844C159.459 46.0074 159.29 45.8844 159.29 45.6701V43.1125C159.297 42.9811 159.335 42.8532 159.401 42.7391C159.467 42.6251 159.558 42.5281 159.668 42.456V42.456Z" fill="black"/>
<path opacity="0.2" d="M154.803 47.3155C154.846 47.2863 154.897 47.2707 154.949 47.2707C155.001 47.2707 155.052 47.2863 155.095 47.3155L156.531 48.4461C156.668 48.5556 156.645 48.8428 156.486 49.089C156.426 49.1878 156.343 49.2707 156.244 49.3306C156.201 49.3604 156.15 49.3764 156.098 49.3764C156.046 49.3764 155.995 49.3604 155.952 49.3306L154.516 48.2C154.379 48.0905 154.398 47.8033 154.562 47.5571C154.622 47.4587 154.705 47.3759 154.803 47.3155V47.3155Z" fill="black"/>
<path opacity="0.2" d="M153.117 50.6159C153.17 50.5922 153.228 50.5828 153.286 50.5885L155.219 50.7572C155.401 50.7572 155.465 51.0034 155.36 51.2724C155.296 51.4386 155.181 51.5805 155.032 51.6781C154.975 51.7147 154.908 51.7323 154.84 51.7283L152.907 51.5641C152.729 51.5641 152.666 51.3179 152.77 51.049C152.832 50.8686 152.954 50.7154 153.117 50.6159V50.6159Z" fill="black"/>
<path opacity="0.2" d="M155.063 56.9715C155.195 56.894 155.323 56.8985 155.391 56.9988C155.436 57.1125 155.447 57.2367 155.423 57.3564C155.398 57.4761 155.34 57.5862 155.255 57.6736L153.331 60.067C153.279 60.1327 153.216 60.1884 153.144 60.2311C153.012 60.3086 152.884 60.3041 152.811 60.2038C152.767 60.0899 152.757 59.966 152.781 59.8466C152.806 59.7271 152.863 59.617 152.948 59.529L154.872 57.1356C154.925 57.0696 154.99 57.014 155.063 56.9715V56.9715Z" fill="black"/>
<path opacity="0.2" d="M154.421 55.3071C154.603 55.2068 154.763 55.2615 154.794 55.453C154.803 55.5832 154.779 55.7134 154.726 55.8325C154.673 55.9516 154.591 56.056 154.489 56.1368L152.296 57.8464L152.232 57.892C152.05 57.9969 151.89 57.9422 151.858 57.7461C151.849 57.6158 151.872 57.4852 151.925 57.3659C151.979 57.2466 152.061 57.1423 152.164 57.0623L154.352 55.3527L154.421 55.3071Z" fill="black"/>
<path opacity="0.2" d="M164.569 41.681C164.604 41.6564 164.645 41.6399 164.687 41.6329C164.73 41.6258 164.773 41.6282 164.815 41.64C164.974 41.7038 164.997 41.9637 164.865 42.2281L163.438 45.0136C163.373 45.1469 163.272 45.2591 163.146 45.3373C163.11 45.3608 163.07 45.3766 163.027 45.3837C162.985 45.3907 162.942 45.3889 162.9 45.3783C162.74 45.3145 162.718 45.0501 162.854 44.7857L164.277 42.0047C164.34 41.8705 164.442 41.758 164.569 41.681V41.681Z" fill="black"/>
<path opacity="0.2" d="M162.281 41.4709C162.321 41.4477 162.366 41.4323 162.413 41.4253C162.609 41.3934 162.709 41.5849 162.641 41.8539L161.884 44.6941C161.832 44.8972 161.705 45.0732 161.528 45.1864C161.489 45.2109 161.446 45.2279 161.401 45.2366C161.205 45.2685 161.1 45.077 161.173 44.8081L161.925 41.9678C161.978 41.7639 162.105 41.5869 162.281 41.4709V41.4709Z" fill="black"/>
</g>
<path d="M160.871 169.86C161.441 170.421 162.121 170.857 162.87 171.139C163.618 171.421 164.418 171.543 165.216 171.496C166.807 171.387 168.363 170.983 169.807 170.306C171.279 169.686 173.121 167.954 174.712 167.986C176.266 167.974 177.817 167.866 179.358 167.662C179.414 165.493 179.192 163.325 178.697 161.211L171.279 161.011C169.278 163.824 165.385 166.162 162.44 167.038C161.984 167.175 161.573 167.433 161.252 167.784C160.931 168.136 160.711 168.568 160.616 169.034C160.614 169.051 160.614 169.068 160.616 169.085C160.669 169.352 160.755 169.613 160.871 169.86Z" fill="#455A64"/>
<path d="M174.713 167.986C173.122 167.954 171.28 169.686 169.807 170.306C168.364 170.983 166.807 171.386 165.216 171.496C164.418 171.543 163.619 171.421 162.87 171.139C162.122 170.857 161.441 170.421 160.872 169.859C160.755 169.613 160.669 169.352 160.616 169.084C160.614 169.068 160.614 169.051 160.616 169.034C160.546 169.368 160.546 169.713 160.616 170.046C160.669 170.314 160.755 170.574 160.872 170.821C161.44 171.384 162.121 171.821 162.87 172.103C163.618 172.385 164.418 172.506 165.216 172.458C166.807 172.35 168.363 171.948 169.807 171.273C171.28 170.653 173.122 168.92 174.713 168.952C176.237 168.963 177.76 168.872 179.272 168.679C179.308 168.341 179.331 167.999 179.345 167.662C177.809 167.865 176.262 167.973 174.713 167.986V167.986Z" fill="#37474F"/>
<path d="M194.202 170.329C194.208 171.103 194.133 171.877 193.979 172.636C193.744 173.976 193.009 175.177 191.922 175.996C190.933 176.584 189.805 176.898 188.654 176.907C187.647 177.015 186.629 176.906 185.668 176.588C184.933 176.317 184.314 175.8 183.917 175.125C183.917 175.125 183.917 175.152 183.917 175.166C184.056 175.659 184.311 176.112 184.662 176.486C185.013 176.86 185.448 177.143 185.932 177.313C186.895 177.632 187.915 177.739 188.923 177.628C190.071 177.627 191.197 177.32 192.187 176.739C193.276 175.921 194.012 174.717 194.243 173.374C194.397 172.617 194.472 171.845 194.466 171.072C194.469 170.545 194.577 170.025 194.785 169.541C194.992 169.057 195.295 168.619 195.674 168.255C195.86 168.079 196.035 167.894 196.199 167.698C196.317 167.56 196.406 167.4 196.462 167.227C196.518 167.054 196.538 166.872 196.522 166.691C196.522 166.55 196.495 166.408 196.477 166.271C196.208 166.6 195.565 167.375 195.401 167.53C195.026 167.894 194.727 168.328 194.521 168.809C194.315 169.29 194.207 169.806 194.202 170.329V170.329Z" fill="#37474F"/>
<path d="M188.53 162.283C188.77 163.872 188.563 165.496 187.933 166.974C187.31 168.429 186.499 169.796 185.521 171.041C185.041 171.629 184.617 172.261 184.254 172.928C183.902 173.597 183.778 174.362 183.898 175.107C184.296 175.783 184.914 176.3 185.649 176.571C186.61 176.889 187.628 176.998 188.635 176.89C189.786 176.881 190.914 176.566 191.904 175.978C192.99 175.159 193.725 173.958 193.96 172.618C194.114 171.859 194.189 171.086 194.183 170.311C194.186 169.785 194.294 169.265 194.501 168.781C194.707 168.297 195.009 167.86 195.387 167.494C195.551 167.339 196.194 166.582 196.463 166.236C196.317 165.086 195.94 163.977 195.355 162.976L188.53 162.283Z" fill="#455A64"/>
<path d="M168.631 94.3546L169.192 133.589L171.015 161.052C175.574 164.015 178.902 161.594 178.902 161.594C180.639 148.583 180.872 140.582 179.928 135.152L180.794 113.981L183.374 135.978L187.751 162.926C192.442 166.044 195.757 162.926 195.757 162.926C195.757 152.951 196.623 141.799 193.933 134.605C195.825 112.381 192.67 94.7649 192.67 94.7649L168.631 94.3546Z" fill="#37474F"/>
<path d="M179.818 105.911L180.775 113.999L180.369 123.914L178.61 107.612C174.507 105.975 173.996 103.673 173.996 103.673C175.712 104.906 177.717 105.677 179.818 105.911V105.911Z" fill="#263238"/>
<path d="M172.1 49.0067L171.056 48.4596H171.033H170.992C170.906 48.4202 170.812 48.4022 170.718 48.4069C170.623 48.4117 170.531 48.4391 170.45 48.487L161.109 53.8802C160.925 53.986 160.773 54.1382 160.668 54.3215C160.562 54.5048 160.507 54.7126 160.507 54.9242V59.4467C160.506 59.5411 160.528 59.6345 160.57 59.7186C160.613 59.8028 160.676 59.8753 160.753 59.9299V59.9299C160.789 59.9541 160.827 59.974 160.867 59.9892L161.879 60.5271L161.829 59.702L170.733 54.564C170.916 54.4585 171.069 54.3065 171.176 54.1232C171.282 53.94 171.338 53.732 171.339 53.52V49.5811L172.1 49.0067Z" fill="#455A64"/>
<path d="M171.804 55.0976L162.463 60.4908C162.371 60.5443 162.266 60.5728 162.16 60.5733C162.054 60.5739 161.949 60.5464 161.857 60.4938C161.764 60.4411 161.688 60.3651 161.634 60.2734C161.58 60.1816 161.551 60.0774 161.551 59.9711V55.444C161.552 55.2328 161.608 55.0254 161.713 54.8424C161.819 54.6593 161.97 54.5069 162.153 54.4L171.521 49.0068C171.613 48.9516 171.718 48.9219 171.825 48.9208C171.933 48.9198 172.038 48.9474 172.131 49.0009C172.224 49.0544 172.301 49.1317 172.354 49.2249C172.407 49.3181 172.434 49.4239 172.433 49.5311V54.0536C172.431 54.2679 172.372 54.4779 172.261 54.6615C172.15 54.8451 171.992 54.9957 171.804 55.0976V55.0976Z" fill="#455A64"/>
<path d="M162.157 55.4441C162.158 55.3388 162.186 55.2355 162.239 55.1444C162.292 55.0533 162.367 54.9774 162.458 54.9244L171.804 49.5312V54.0536C171.804 54.1597 171.776 54.2639 171.723 54.3559C171.671 54.4479 171.595 54.5245 171.503 54.5779L162.162 59.9666L162.157 55.4441Z" fill="#E80537"/>
<path d="M167.741 62.1316C167.867 61.835 168.078 61.5826 168.348 61.4067C169.14 60.9104 169.744 60.1646 170.066 59.2868C170.328 58.3494 170.472 57.3831 170.495 56.4101C170.521 55.4315 170.867 54.4884 171.48 53.7249C169.82 53.0547 169.145 54.5637 168.544 56.98L162.986 60.1712L163.064 60.3536C163.144 60.5311 163.186 60.7239 163.186 60.9189C163.186 61.1139 163.144 61.3066 163.064 61.4842L161.445 64.7712C162.229 65.3315 163.143 65.6821 164.101 65.7899C165.058 65.8976 166.027 65.7588 166.916 65.3867C167.125 64.286 167.401 63.199 167.741 62.1316V62.1316Z" fill="#FFA8A7"/>
<path d="M166.62 68.7878C166.912 67.607 167.263 66.0524 167.491 64.6848C166.462 65.0436 165.366 65.1636 164.285 65.0356C163.203 64.9076 162.165 64.5351 161.249 63.9462C160.59 65.0612 160 66.2153 159.48 67.4019C160.48 68.1743 161.646 68.7019 162.886 68.9426C164.125 69.1833 165.404 69.1302 166.62 68.7878Z" fill="#E0E0E0"/>
<path d="M166.105 70.7574C166.105 70.7574 166.333 69.9459 166.62 68.788C165.403 69.1285 164.124 69.1793 162.884 68.9363C161.644 68.6932 160.479 68.1631 159.481 67.3884C157.909 71.0299 156.938 74.9019 156.604 78.8541C156.454 80.0084 156.511 81.1801 156.773 82.3143C156.909 82.8813 157.166 83.4124 157.525 83.8717C157.885 84.3311 158.339 84.7079 158.856 84.9767C160.329 85.6515 162.093 85.0679 163.415 84.1516C165.927 82.4283 167.518 79.6793 169 77.026L173.043 62.5878C170.65 62.8522 168.69 64.1971 166.105 70.7574Z" fill="#F0F0F0"/>
<path opacity="0.1" d="M166.105 70.7577C165.156 74.1131 163.675 79.4699 163.675 79.4699C167.048 76.0415 166.105 70.7577 166.105 70.7577Z" fill="black"/>
<path opacity="0.1" d="M172.46 64.7215C171.228 65.5612 170.196 66.6616 169.438 67.9447C168.115 70.2242 167.728 72.8775 167.368 75.4761C167.112 77.2996 166.859 79.1232 166.606 80.9468C167.483 79.6883 168.286 78.3808 169.014 77.0307L172.46 64.7215Z" fill="black"/>
<path d="M177.37 62.1454L173.058 62.6013C169.524 65.7151 167.701 72.248 168.462 79.4694C168.91 84.4204 168.966 89.399 168.631 94.3589C178.205 101.352 191.166 96.2736 192.684 94.7555L191.457 85.8884C191.381 84.8926 191.547 83.8931 191.941 82.9752C192.852 80.8735 194.457 76.7431 194.676 73.5428C194.813 70.6914 194.218 67.8524 192.948 65.2957L186.68 62.5603L177.37 62.1454Z" fill="#F0F0F0"/>
<path opacity="0.1" d="M191.941 82.9577C192.739 81.1067 194.083 77.683 194.539 74.706C193.65 75.2439 192.716 75.7728 192.342 76.6572C191.16 79.5154 190.851 82.6594 191.453 85.693C191.405 84.756 191.572 83.8205 191.941 82.9577Z" fill="black"/>
<path fill-rule="evenodd" clip-rule="evenodd" d="M176.175 68.4324C175.997 67.397 175.945 66.3438 176.02 65.2958H177.516L179.667 66.0754C179.09 67.0496 178.364 67.9279 177.516 68.6786C177.494 68.6806 177.472 68.6824 177.451 68.6839L177.516 68.6968C177.078 74.2763 176.967 79.8766 177.183 85.4691L174.398 89.1163L172.624 85.3004C172.624 85.3004 172.565 76.7343 176.175 68.4325C176.175 68.4324 176.175 68.4324 176.175 68.4324Z" fill="#E80537"/>
<path d="M177.516 65.2963C179.371 65.9801 181.021 69.2853 181.021 69.2853C185.9 65.1458 186.661 62.5609 186.661 62.5609C185.407 60.7783 184.039 60.4911 184.039 60.4911L177.516 65.2963Z" fill="#E0E0E0"/>
<path d="M177.516 65.2963C176.099 65.3374 174.845 67.3114 174.845 67.3114C174.617 63.8557 177.516 61.1933 177.516 61.1933V65.2963Z" fill="#E0E0E0"/>
<path d="M184.153 56.62L177.516 58.9907V61.448C179.009 61.2364 180.442 60.7163 181.724 59.9207C182.87 59.1134 183.723 57.9549 184.153 56.62Z" fill="#F28F8F"/>
<path d="M184.153 56.6201C183.723 57.9549 182.87 59.1135 181.724 59.9208C180.442 60.7163 179.009 61.2364 177.516 61.448V65.2957C177.516 65.2957 184.532 62.1455 184.532 60.6639V56.4833L184.153 56.6201Z" fill="#FFA8A7"/>
<path d="M171.366 46.8869C170.628 46.9142 169.897 46.7371 169.254 46.375C168.61 46.013 168.079 45.4802 167.719 44.8354C167.672 44.7432 167.651 44.6396 167.66 44.5363C167.669 44.4331 167.707 44.3344 167.769 44.2516C167.831 44.1688 167.916 44.1053 168.013 44.0682C168.109 44.0312 168.215 44.0222 168.316 44.0422C168.824 44.1333 169.345 44.1333 169.853 44.0422C169.268 43.2771 168.84 42.4039 168.594 41.4727C168.349 40.5416 168.29 39.571 168.421 38.617C168.438 38.5106 168.479 38.4095 168.541 38.3218C168.604 38.2341 168.686 38.1623 168.781 38.1122C168.877 38.0621 168.982 38.0351 169.09 38.0333C169.198 38.0315 169.304 38.055 169.401 38.1019C171.515 39.1458 173.865 39.6173 176.217 39.4696C177.471 39.3829 178.706 39.114 179.96 39.0137C181.214 38.8621 182.487 39.056 183.639 39.5744C184.209 39.8419 184.697 40.2584 185.05 40.78C185.403 41.3016 185.608 41.9089 185.645 42.5377C185.788 42.3353 185.974 42.1662 186.189 42.0419C186.403 41.9176 186.642 41.8411 186.889 41.8174C187.148 41.787 187.409 41.8093 187.658 41.8829C187.908 41.9566 188.139 42.0801 188.339 42.2459C187.614 42.6471 186.908 43.0483 186.183 43.4449C186.926 43.1805 187.861 43.7595 188.23 44.457C188.543 45.1836 188.679 45.9743 188.626 46.7638C188.671 47.81 188.623 48.858 188.485 49.8958C188.348 50.9405 187.94 51.931 187.3 52.768C186.737 53.4559 185.986 53.9646 185.139 54.2314C183.987 54.5494 182.766 54.5096 181.638 54.1174C180.51 53.7277 179.438 53.1945 178.446 52.5309C175.92 50.8681 173.55 48.979 171.366 46.8869V46.8869Z" fill="#263238"/>
<path d="M171.207 44.7987C170.478 49.1361 170.951 53.5901 172.574 57.6777C172.948 58.6214 173.441 59.597 174.321 60.1031C175.2 60.6091 176.39 60.518 177.443 60.3584C179.151 60.1735 180.817 59.7115 182.376 58.9907C183.947 58.2511 185.17 56.9328 185.791 55.3117C186.349 55.4256 186.929 55.3757 187.459 55.1678C187.99 54.9599 188.449 54.603 188.781 54.14C189.437 53.178 189.777 52.0353 189.753 50.8712C189.753 50.1327 189.616 49.2619 188.95 48.9383C188.285 48.6146 187.582 48.9747 187.058 49.3942C186.189 50.1128 185.554 51.0749 185.235 52.1569C184.747 50.3606 183.985 48.6237 183.498 46.8229C183.306 46.1117 183.069 45.3413 182.449 44.9446C181.697 44.4614 180.712 44.7395 179.841 44.9446C176.998 45.6309 174.026 45.5807 171.207 44.7987V44.7987Z" fill="#FFA8A7"/>
<path d="M176.454 50.2606L174.348 53.8074L176.86 54.277L176.454 50.2606Z" fill="#F28F8F"/>
<path d="M179.272 55.4989L177.361 56.4107C177.525 56.6278 177.755 56.7856 178.017 56.8605C178.278 56.9353 178.557 56.9231 178.811 56.8256C179.026 56.6882 179.188 56.4826 179.271 56.242C179.355 56.0014 179.355 55.7397 179.272 55.4989V55.4989Z" fill="#F28F8F"/>
<path opacity="0.3" d="M179.272 55.4989L177.361 56.4107C177.525 56.6278 177.755 56.7856 178.017 56.8605C178.278 56.9353 178.557 56.9231 178.811 56.8256C179.026 56.6882 179.188 56.4826 179.271 56.242C179.355 56.0014 179.355 55.7397 179.272 55.4989V55.4989Z" fill="black"/>
<path d="M178.154 56.8987C178.377 56.9443 178.609 56.9237 178.82 56.8395C178.994 56.7398 179.135 56.591 179.225 56.4119C179.315 56.2327 179.35 56.031 179.326 55.832C179.055 55.8318 178.791 55.9234 178.578 56.0918C178.338 56.2957 178.186 56.585 178.154 56.8987V56.8987Z" fill="#F28F8F"/>
<path d="M180.092 50.4022C180.101 50.4965 180.092 50.5918 180.065 50.6826C180.038 50.7734 179.993 50.8579 179.933 50.9313C179.873 51.0048 179.799 51.0657 179.716 51.1106C179.632 51.1556 179.541 51.1836 179.446 51.1932C179.352 51.2028 179.257 51.1937 179.166 51.1665C179.075 51.1392 178.991 51.0944 178.917 51.0345C178.844 50.9746 178.783 50.9008 178.738 50.8174C178.693 50.7339 178.665 50.6424 178.655 50.5481C178.645 50.4541 178.654 50.3589 178.681 50.2682C178.708 50.1775 178.753 50.093 178.812 50.0197C178.872 49.9463 178.946 49.8856 179.029 49.8409C179.113 49.7962 179.204 49.7685 179.298 49.7594C179.489 49.7403 179.679 49.7971 179.827 49.9175C179.976 50.0379 180.071 50.2121 180.092 50.4022V50.4022Z" fill="#263238"/>
<path d="M174.047 50.7808C174.06 50.9223 174.032 51.0646 173.965 51.1899C173.897 51.3152 173.795 51.4178 173.669 51.4849C173.544 51.5519 173.402 51.5803 173.26 51.5666C173.119 51.5529 172.984 51.4976 172.874 51.4077C172.764 51.3179 172.683 51.1974 172.641 51.0615C172.599 50.9257 172.599 50.7805 172.639 50.6442C172.68 50.508 172.76 50.3868 172.869 50.2959C172.978 50.205 173.112 50.1485 173.253 50.1334C173.444 50.1143 173.635 50.1717 173.784 50.2931C173.933 50.4144 174.027 50.5898 174.047 50.7808V50.7808Z" fill="#263238"/>
<path d="M173.058 47.9948L171.58 49.253C171.492 49.0637 171.463 48.8518 171.498 48.6456C171.533 48.4395 171.63 48.249 171.776 48.0996C171.959 47.9639 172.175 47.8821 172.402 47.8635C172.628 47.845 172.856 47.8905 173.058 47.9948V47.9948Z" fill="#263238"/>
<path d="M179.193 47.2878C179.759 47.6024 180.324 47.917 180.894 48.227C180.943 48.0231 180.929 47.8091 180.853 47.6136C180.777 47.4181 180.643 47.2504 180.47 47.1328C180.263 47.0385 180.035 47.003 179.81 47.0304C179.584 47.0577 179.371 47.1468 179.193 47.2878Z" fill="#263238"/>
<path d="M207.592 80.8738L209.871 79.7431C210.585 79.3901 211.18 78.8353 211.581 78.1475L212.297 76.9212C212.791 76.0807 213.52 75.4026 214.394 74.9699C215.708 74.3243 216.934 73.5122 218.041 72.5537V72.5537C218.273 72.9236 218.371 73.362 218.317 73.7954C218.264 74.2288 218.064 74.6306 217.749 74.9335C217.279 75.3645 216.779 75.7621 216.254 76.1234L217.352 76.4014C218.146 76.6049 218.983 76.5539 219.746 76.2556L222.882 75.0383C222.972 75.0041 223.07 74.9942 223.165 75.0097C223.26 75.0252 223.349 75.0656 223.424 75.1266C223.498 75.1877 223.555 75.2673 223.589 75.3575C223.623 75.4476 223.632 75.5451 223.616 75.6401C223.327 77.0308 222.801 78.3616 222.062 79.5745C221.722 80.1547 221.261 80.655 220.71 81.0412C220.159 81.4275 219.532 81.6907 218.871 81.8129C217.27 82.1138 215.72 82.3509 214.841 82.474C214.336 82.5492 213.847 82.7031 213.391 82.9298L210.026 84.603L207.592 80.8738Z" fill="#FFA8A7"/>
<path d="M205.412 84.3974C205.014 83.4575 204.875 82.4277 205.011 81.4159L200.698 83.4583C199.92 80.3204 199.311 77.1427 198.874 73.9392C198.364 69.6128 198.478 66.7042 192.911 65.2773L192.323 76.6746C192.323 76.6746 193.007 90.5794 196.996 92.1203C200.297 93.3922 202.626 90.2511 207.664 86.996C206.663 86.3826 205.877 85.475 205.412 84.3974V84.3974Z" fill="#F0F0F0"/>
<path opacity="0.1" d="M197.831 86.3077C197.981 85.6604 199.043 84.1787 200.716 83.4584C200.716 83.4584 200.589 82.9524 200.402 82.1318C199.536 82.5603 197.402 83.8687 197.831 86.3077Z" fill="black"/>
<path d="M208.868 79.5837L205.011 81.4073C204.86 82.4969 205.033 83.6069 205.508 84.5991C205.983 85.5913 206.739 86.4219 207.683 86.9874C208.817 86.2536 209.992 85.5853 211.202 84.986C211.202 84.986 209.151 83.3448 208.868 79.5837Z" fill="#E0E0E0"/>
<path d="M224.66 23.8912C224.66 23.7881 224.632 23.6868 224.58 23.5979C224.528 23.5089 224.453 23.4355 224.363 23.3851V23.3851L221.728 21.9217H221.705C221.619 21.8725 221.522 21.8467 221.423 21.8467C221.324 21.8467 221.226 21.8725 221.14 21.9217L203.123 32.3252C202.856 32.481 202.635 32.7039 202.48 32.9718C202.326 33.2397 202.244 33.5433 202.243 33.8525V40.5495L196.007 47.0004C195.451 47.5794 195.391 48.4502 195.824 48.5869L198.309 49.9546C198.353 49.9991 198.407 50.0323 198.467 50.0513C198.526 50.0704 198.589 50.0747 198.651 50.064L202.271 49.6081V54.5227C202.27 54.6243 202.296 54.7243 202.346 54.8125C202.397 54.9007 202.47 54.9738 202.558 55.0242L205.175 56.4785H205.211H205.239C205.323 56.5185 205.417 56.5374 205.51 56.5334C205.604 56.5294 205.695 56.5027 205.777 56.4557L223.793 46.0522C224.062 45.8982 224.285 45.6757 224.44 45.4074C224.594 45.1391 224.675 44.8346 224.673 44.5249L224.66 23.8912ZM205.348 34.126L205.289 34.1944L205.348 34.126ZM205.179 34.3448L205.134 34.4086L205.179 34.3448ZM204.929 34.9329C204.926 34.9587 204.926 34.9846 204.929 35.0104C204.926 34.9846 204.926 34.9587 204.929 34.9329V34.9329ZM205.48 34.0211C205.5 34.0016 205.522 33.9833 205.544 33.9664C205.522 33.9759 205.501 33.9866 205.48 33.9983V34.0211Z" fill="#E80537"/>
<path d="M218.478 30.374C218.398 30.4143 218.326 30.4701 218.268 30.5381C218.222 30.5934 218.186 30.6568 218.163 30.725C217.967 31.1199 217.8 31.5282 217.662 31.9468C217.511 32.3161 217.37 32.6854 217.242 33.0592C217.208 33.1257 217.182 33.1961 217.165 33.2689C217.121 33.3577 217.088 33.451 217.064 33.547C216.982 33.7567 216.9 33.9619 216.823 34.1716C216.791 34.2309 216.763 34.2856 216.736 34.3448C216.655 34.5184 216.587 34.6983 216.535 34.8828C216.501 34.9618 216.488 35.0484 216.498 35.134C216.507 35.2196 216.539 35.3012 216.59 35.3706C216.787 35.5571 217.029 35.6891 217.292 35.7536L217.361 35.7764L217.579 35.8356L217.958 36.0225L218.031 36.0681C218.054 36.1 218.081 36.1274 218.104 36.1547C218.128 36.1883 218.148 36.2251 218.163 36.2642C218.177 36.3256 218.177 36.3896 218.163 36.4511C218.14 36.5423 218.117 36.638 218.099 36.7292C218.081 36.8203 217.985 37.0392 217.931 37.1851L217.848 37.3857L217.566 38.0513C217.47 38.2655 217.402 38.4433 217.333 38.6211C217.267 38.7479 217.209 38.8789 217.16 39.0132L217.064 39.2092C216.987 39.3734 216.905 39.5375 216.827 39.7062L216.759 39.852L216.504 40.3079L216.408 40.4903L216.111 41.01L216.034 41.1422L215.742 41.6984L215.651 41.8352L214.967 42.829L214.694 43.1983L214.616 43.3032L213.782 44.3608L213.463 44.6617C213.402 44.7343 213.33 44.7959 213.248 44.8441C213.197 44.876 213.138 44.8929 213.078 44.8929C213.017 44.8929 212.958 44.876 212.907 44.8441L212.701 44.7392C212.701 44.7073 212.674 44.7027 212.651 44.6982C212.368 44.4493 212.063 44.2265 211.739 44.0326C211.679 43.9941 211.608 43.9736 211.537 43.9736C211.465 43.9736 211.394 43.9941 211.334 44.0326C211.296 44.055 211.261 44.081 211.229 44.1101C211.092 44.2237 210.974 44.3575 210.878 44.5067C210.842 44.5287 210.814 44.5625 210.8 44.6025C210.55 44.9535 210.271 45.2681 210.012 45.6054C209.752 45.9428 209.533 46.1662 209.3 46.4579C209.168 46.6084 209.041 46.7634 208.917 46.9138C208.794 47.0643 208.639 47.2558 208.507 47.4427C208.454 47.5034 208.407 47.569 208.366 47.6387C208.299 47.7142 208.249 47.8037 208.221 47.9007C208.193 47.9976 208.186 48.0997 208.202 48.1995C208.203 48.3217 208.213 48.4436 208.234 48.5642C208.243 48.72 208.275 48.8736 208.329 49.0201C208.343 49.1163 208.371 49.21 208.411 49.2982C208.425 49.3264 208.44 49.3539 208.457 49.3802C208.452 49.4012 208.452 49.423 208.457 49.444C208.471 49.4701 208.488 49.4945 208.507 49.517C208.517 49.5499 208.535 49.5803 208.557 49.6063C208.58 49.6322 208.608 49.653 208.639 49.6674C208.682 49.7249 208.738 49.7704 208.804 49.7996L208.917 49.8452H208.995L209.091 49.8817H209.136C209.189 49.8932 209.243 49.8932 209.296 49.8817C209.308 49.8885 209.321 49.8921 209.335 49.8921C209.348 49.8921 209.362 49.8885 209.373 49.8817C209.439 49.8977 209.508 49.8977 209.574 49.8817C209.646 49.8975 209.721 49.8975 209.793 49.8817C209.865 49.8928 209.939 49.8928 210.012 49.8817H210.144C210.248 49.8714 210.35 49.85 210.449 49.8179H210.499L210.609 49.7905C210.637 49.7859 210.663 49.775 210.686 49.7586L210.8 49.7176C210.915 49.6843 211.026 49.6416 211.133 49.5899L211.224 49.5443L211.297 49.5033C211.362 49.4677 211.424 49.4281 211.484 49.3848C211.558 49.3415 211.63 49.2944 211.698 49.2434C211.78 49.1882 211.86 49.1289 211.936 49.0657C212.002 49.0201 212.071 48.9699 212.141 48.9152L212.223 48.8423L212.264 48.8058L212.378 48.7101C212.496 48.6081 212.608 48.5001 212.715 48.3864C212.804 48.3145 212.886 48.2352 212.961 48.1493C212.99 48.129 213.013 48.1025 213.03 48.0718C213.193 47.9311 213.345 47.7788 213.486 47.6159C213.608 47.5089 213.723 47.3947 213.832 47.274C213.924 47.1927 214.009 47.1043 214.087 47.0096L214.229 46.8637C214.271 46.8319 214.307 46.7915 214.334 46.7452C214.356 46.7328 214.373 46.7136 214.384 46.6904L214.461 46.6175C214.503 46.5709 214.543 46.5222 214.58 46.4716C214.662 46.3894 214.74 46.3026 214.812 46.2118L214.885 46.1206L214.958 46.0294C215.103 45.8702 215.238 45.7028 215.364 45.5279C215.431 45.4617 215.49 45.3865 215.537 45.3045C215.622 45.2087 215.7 45.1066 215.77 44.9991C215.887 44.854 215.995 44.7018 216.093 44.5432C216.157 44.4611 216.184 44.4201 216.216 44.3836L216.298 44.2651C216.358 44.183 216.408 44.101 216.463 44.0143L216.567 43.873C216.6 43.8245 216.631 43.7743 216.659 43.7226C216.727 43.6378 216.787 43.5462 216.836 43.449C216.923 43.3328 217.002 43.2109 217.073 43.0843C217.1 43.0497 217.125 43.0131 217.146 42.9749C217.159 42.9577 217.169 42.9394 217.178 42.9202L217.21 42.8609L217.288 42.7515C217.361 42.6375 217.429 42.5236 217.493 42.4005L217.584 42.25L217.871 41.7531C217.912 41.7055 217.944 41.6516 217.967 41.5936C218.04 41.475 218.108 41.3565 218.177 41.2288C218.177 41.1878 218.218 41.1468 218.241 41.1057C218.279 41.0502 218.311 40.9906 218.336 40.9279L218.582 40.4721C218.623 40.3854 218.669 40.3034 218.71 40.2168C218.78 40.1024 218.84 39.9818 218.888 39.8566C219.084 39.4964 219.257 39.1317 219.417 38.7579L219.49 38.5892C219.558 38.4586 219.616 38.323 219.663 38.1835C219.85 37.7652 220.016 37.3376 220.16 36.9024L220.201 36.793C220.296 36.5471 220.377 36.296 220.442 36.0408C220.543 35.7308 220.625 35.4253 220.702 35.129C220.73 35.0287 220.757 34.9284 220.78 34.8235C220.801 34.7946 220.811 34.7589 220.807 34.7232C220.809 34.6989 220.809 34.6746 220.807 34.6503L220.844 34.5135C220.956 34.1428 221.044 33.7651 221.108 33.3829V33.3236C221.116 33.2907 221.116 33.2563 221.108 33.2233C221.108 33.2233 221.108 33.1823 221.108 33.1641C221.108 33.1458 221.108 33.0911 221.108 33.0592C221.106 33.0213 221.106 32.9832 221.108 32.9453C221.137 32.7843 221.151 32.621 221.149 32.4574C221.149 32.3936 221.149 32.3252 221.149 32.2569C221.161 32.2105 221.161 32.1619 221.149 32.1155C221.149 32.0927 221.149 32.0654 221.149 32.038C221.148 31.8952 221.123 31.7535 221.076 31.6186C221.04 31.4161 220.976 31.2196 220.885 31.0351C220.779 30.7359 220.611 30.4625 220.392 30.2327C220.335 30.1477 220.254 30.0811 220.16 30.0412C220.16 30.0412 220.137 30.0047 220.11 30.0093C220.034 29.9518 219.94 29.9227 219.845 29.9272C219.558 29.916 219.273 29.9657 219.006 30.0731L218.911 30.1141C218.828 30.1346 218.749 30.1653 218.674 30.2053L218.628 30.2327C218.605 30.3011 218.537 30.3284 218.478 30.374Z" fill="white"/>
<path opacity="0.1" d="M204.942 56.0135C204.942 56.1133 204.967 56.2117 205.016 56.2988C205.064 56.386 205.135 56.4589 205.22 56.5104L202.604 55.0561C202.515 55.0057 202.442 54.9326 202.392 54.8445C202.341 54.7563 202.315 54.6562 202.316 54.5546V49.6401L204.947 49.3164L204.942 56.0135Z" fill="black"/>
<path opacity="0.2" d="M203.123 32.3252L221.145 21.9217C221.231 21.8725 221.328 21.8467 221.427 21.8467C221.527 21.8467 221.624 21.8725 221.71 21.9217H221.733L224.368 23.3851C224.279 23.3348 224.178 23.3083 224.076 23.3083C223.974 23.3083 223.873 23.3348 223.784 23.3851L205.763 33.7886C205.428 33.9805 205.166 34.2767 205.015 34.632L202.398 33.123C202.55 32.7875 202.804 32.5083 203.123 32.3252V32.3252Z" fill="white"/>
<path opacity="0.1" d="M202.262 40.559V33.8619C202.262 33.6135 202.314 33.3679 202.417 33.1416L205.015 34.6324C204.928 34.8483 204.883 35.0789 204.883 35.3117V42.0087L202.262 40.559Z" fill="white"/>
<path opacity="0.05" d="M196.025 47.0004L202.262 40.5586L204.902 42.0266L198.665 48.4729C198.182 48.9744 198.072 49.6901 198.328 49.9682L195.843 48.6006C195.41 48.4501 195.469 47.5794 196.025 47.0004Z" fill="white"/>
<path d="M143.15 1.76025L88.9724 33.0527C88.1152 33.5466 87.3972 34.2496 86.8854 35.0963C86.3736 35.9429 86.0848 36.9054 86.0459 37.8939V155.547C86.0459 157.533 87.2708 159.849 88.7801 160.722C90.2893 161.596 92.9064 161.496 94.633 160.505L148.602 129.346C149.505 128.755 150.258 127.96 150.798 127.024C151.338 126.089 151.651 125.04 151.712 123.962V6.71437C151.712 4.73272 150.487 2.41662 148.974 1.54286C147.46 0.669093 144.868 0.76943 143.15 1.76025Z" fill="#37474F"/>
<path d="M93.9098 160.877C92.2375 161.525 90.1137 161.492 88.8094 160.739C87.3001 159.865 86.0752 157.549 86.0752 155.564V37.8772C86.1071 36.9359 86.3775 36.0181 86.8612 35.21L91.8989 38.0696C91.0272 39.0837 90.5169 40.3587 90.4482 41.6942V158.089C90.4273 160.476 91.9365 161.609 93.9098 160.877Z" fill="#263238"/>
<path d="M93.1527 36.9324C92.3555 37.4549 91.6921 38.1571 91.2158 38.9827C90.7394 39.8083 90.4635 40.7341 90.4102 41.6858V158.089C90.4102 160.768 92.3082 161.851 94.6285 160.526L148.605 129.363C149.509 128.772 150.261 127.976 150.802 127.041C151.342 126.106 151.655 125.057 151.716 123.978V6.71435C151.716 4.74107 150.315 3.93001 148.605 4.92084L93.1527 36.9324Z" fill="#455A64"/>
<path d="M95.9831 44.6125C95.1228 45.173 94.4068 45.9285 93.8933 46.8176C93.3797 47.7067 93.083 48.7044 93.0273 49.7297V148.745C93.0273 150.631 94.3526 151.396 95.9831 150.455L146.758 121.136C147.617 120.573 148.332 119.817 148.846 118.927C149.359 118.038 149.656 117.04 149.713 116.014V16.9991C149.713 15.122 148.384 14.3569 146.758 15.2934L95.9831 44.6125Z" fill="#37474F"/>
<path d="M145.972 113.552V15.7489L95.9831 44.5956C95.1228 45.1561 94.4068 45.9116 93.8933 46.8007C93.3797 47.6898 93.083 48.6875 93.0273 49.7128V147.541L143.016 118.694C143.878 118.129 144.594 117.369 145.108 116.476C145.621 115.583 145.917 114.581 145.972 113.552V113.552Z" fill="#E80537"/>
<path opacity="0.6" d="M145.972 113.552V15.7489L95.9831 44.5956C95.1228 45.1561 94.4068 45.9116 93.8933 46.8007C93.3797 47.6898 93.083 48.6875 93.0273 49.7128V147.541L143.016 118.694C143.878 118.129 144.594 117.369 145.108 116.476C145.621 115.583 145.917 114.581 145.972 113.552V113.552Z" fill="white"/>
<path d="M117.138 27.1663L126.139 21.9697C126.674 21.6603 127.109 21.8777 127.109 22.463C127.085 22.7891 126.984 23.105 126.816 23.3853C126.647 23.6655 126.416 23.9024 126.139 24.0768L117.138 29.2901C116.603 29.6036 116.168 29.382 116.168 28.8009C116.189 28.4712 116.288 28.1511 116.456 27.867C116.625 27.5828 116.859 27.3427 117.138 27.1663V27.1663Z" fill="black"/>
<path d="M132.581 18.2367C133.083 17.9482 133.493 18.1823 133.493 18.7634C133.475 19.0798 133.384 19.3876 133.225 19.6621C133.067 19.9366 132.846 20.1701 132.581 20.3437C132.075 20.6322 131.67 20.3981 131.67 19.817C131.687 19.5005 131.778 19.1924 131.937 18.9178C132.095 18.6432 132.316 18.4098 132.581 18.2367V18.2367Z" fill="black"/>
<path d="M136.214 16.1338C136.716 15.8412 137.126 16.0753 137.126 16.6606C137.108 16.9765 137.017 17.2838 136.858 17.5577C136.7 17.8315 136.479 18.0642 136.214 18.2367C135.712 18.5293 135.303 18.2952 135.303 17.7099C135.32 17.394 135.411 17.0867 135.57 16.8128C135.728 16.5389 135.949 16.3063 136.214 16.1338V16.1338Z" fill="black"/>
<path d="M107.045 32.9816C107.551 32.689 107.961 32.9273 107.961 33.5084C107.944 33.8248 107.852 34.1326 107.693 34.4066C107.534 34.6806 107.312 34.9129 107.045 35.0845C106.543 35.3771 106.134 35.143 106.134 34.5619C106.15 34.2453 106.242 33.9371 106.4 33.6625C106.558 33.3878 106.779 33.1545 107.045 32.9816V32.9816Z" fill="black"/>
<path d="M110.711 30.8744C111.217 30.5859 111.627 30.82 111.627 31.4011C111.61 31.7176 111.518 32.0255 111.36 32.3001C111.201 32.5746 110.981 32.808 110.715 32.9814C110.21 33.2741 109.8 33.0358 109.8 32.4547C109.817 32.1383 109.909 31.8305 110.067 31.556C110.226 31.2815 110.446 31.048 110.711 30.8744V30.8744Z" fill="black"/>
<path d="M145.971 103.289V113.561C145.87 115.306 145.086 116.942 143.788 118.114C143.551 118.329 143.292 118.52 143.015 118.682L142.066 119.221C137.768 115.643 134.507 112.904 134.507 112.904C127.107 104.167 127.96 97.5822 128.863 97.507C128.968 97.507 129.148 97.4568 129.398 97.4025C131.792 96.9245 134.262 96.9869 136.629 97.585C138.995 98.1831 141.198 99.302 143.078 100.86C143.792 101.424 144.783 102.269 145.971 103.289Z" fill="#FFA8A7"/>
<path d="M143.789 118.105C143.552 118.32 143.292 118.511 143.016 118.673L142.067 119.221L103.42 141.533C102.208 136.893 100.21 129.204 100.185 129.066C100.185 128.995 104.553 122.469 104.85 114.852C105.147 107.235 103.027 103.894 102.342 103.146C102.651 103.021 109.541 101.081 109.541 101.081L123.279 98.3382L129.382 97.3809C129.382 97.3809 137.66 101.436 142.18 110.5C143.411 112.836 143.968 115.469 143.789 118.105V118.105Z" fill="#E80537"/>
<path opacity="0.2" d="M143.789 118.105C143.552 118.32 143.292 118.511 143.016 118.673L142.067 119.221L103.42 141.533C102.208 136.893 100.21 129.204 100.185 129.066C100.185 128.995 104.553 122.469 104.85 114.852C105.147 107.235 103.027 103.894 102.342 103.146C102.651 103.021 109.541 101.081 109.541 101.081L123.279 98.3382L129.382 97.3809C129.382 97.3809 137.66 101.436 142.18 110.5C143.411 112.836 143.968 115.469 143.789 118.105V118.105Z" fill="black"/>
<path d="M102.35 103.151C98.2193 103.61 95.4517 105.58 93.0186 109.706V147.537L98.8172 144.192L104.206 129.56C104.206 129.56 110.845 107.628 102.35 103.151Z" fill="#FFA8A7"/>
<path d="M108.993 95.8887C109.139 95.3745 107.923 93.6981 107.651 93.234C107.12 92.3226 106.535 91.4405 105.924 90.5793C104.632 88.7649 103.416 86.9086 102.086 85.1444C100.58 83.2385 99.2996 81.1651 98.2694 78.9653C96.986 76.0807 96.3422 72.8323 96.9567 69.7344C97.5713 66.6365 99.5655 63.7309 102.467 62.4809C103.721 56.4482 109.114 51.5066 115.239 50.775C121.581 50.0141 128.299 53.3712 134.42 50.5325C135.181 50.1771 135.921 49.6963 136.757 49.6253C138.626 49.4371 140.181 51.3226 140.356 53.1956C140.532 55.0685 139.713 56.8746 138.922 58.5761C139.645 58.7988 140.288 59.2253 140.775 59.8044C141.261 60.3835 141.57 61.0906 141.664 61.8409C141.759 62.5912 141.635 63.3528 141.307 64.0343C140.979 64.7159 140.462 65.2884 139.817 65.6833C140.866 68.4133 139.838 71.6199 137.877 73.7855C135.917 75.9511 133.166 77.2387 130.394 78.171C127.622 79.1033 124.746 79.7471 122.066 80.9052C118.922 82.2923 116.122 84.3534 113.863 86.9426C111.603 89.5319 109.941 92.5859 108.993 95.8887V95.8887Z" fill="#263238"/>
<path d="M133.287 61.8994C134.725 63.3627 137.626 66.8703 137.304 79.6046C137.028 90.3992 133.542 93.0581 131.765 93.819C129.988 94.5798 126.619 94.1074 123.328 93.5514V98.8191C123.328 98.8191 127.998 102.059 129.181 105.002C130.093 107.302 124.273 110.496 115.439 106.675C111.827 105.119 108.909 101.152 108.909 101.152L109.03 85.5621C109.03 85.5621 107.086 87.4392 103.809 84.5587C101.1 82.1799 100.192 78.179 102.312 76.0343C104.432 73.8896 108.341 74.4875 109.837 77.5519C109.837 77.5519 115.753 78.041 122.756 74.2074C129.758 70.3737 132.793 66.0801 133.287 61.8994Z" fill="#FFA8A7"/>
<path d="M125.08 77.6773C125.081 77.9437 125.004 78.2045 124.858 78.4275C124.713 78.6505 124.505 78.8257 124.26 78.9314C124.016 79.0371 123.746 79.0686 123.483 79.022C123.221 78.9754 122.978 78.8527 122.785 78.6693C122.592 78.4858 122.457 78.2497 122.397 77.9902C122.337 77.7307 122.355 77.4592 122.448 77.2097C122.541 76.9601 122.705 76.7434 122.92 76.5864C123.136 76.4295 123.392 76.3392 123.658 76.3269C123.841 76.3208 124.022 76.351 124.193 76.4158C124.364 76.4806 124.52 76.5788 124.652 76.7044C124.784 76.8301 124.89 76.9808 124.964 77.1479C125.037 77.3149 125.077 77.4949 125.08 77.6773V77.6773Z" fill="#263238"/>
<path d="M124.043 85.6758L129.135 86.5997C129.09 86.9385 128.976 87.2647 128.802 87.5587C128.628 87.8527 128.396 88.1086 128.12 88.3111C127.845 88.5136 127.531 88.6586 127.199 88.7373C126.866 88.8161 126.521 88.827 126.184 88.7695C125.496 88.6314 124.888 88.2318 124.489 87.6548C124.09 87.0777 123.93 86.3683 124.043 85.6758V85.6758Z" fill="#B16668"/>
<path d="M126.179 88.769C126.522 88.8296 126.874 88.8182 127.212 88.7356C127.187 88.1632 126.943 87.6225 126.529 87.2261C126.115 86.8297 125.565 86.6081 124.992 86.6076C124.685 86.6069 124.382 86.671 124.102 86.7957C124.224 87.2885 124.484 87.736 124.852 88.0856C125.221 88.4353 125.681 88.6724 126.179 88.769Z" fill="#F28F8F"/>
<path d="M135.874 73.3128L132.776 72.0586C132.848 71.8529 132.96 71.6639 133.107 71.503C133.254 71.3422 133.432 71.2128 133.63 71.1229C133.828 71.033 134.043 70.9843 134.26 70.9798C134.478 70.9754 134.694 71.0153 134.896 71.097C135.312 71.2701 135.646 71.5967 135.828 72.0092C136.01 72.4217 136.027 72.8885 135.874 73.3128Z" fill="#263238"/>
<path d="M135.16 76.674C135.162 76.9403 135.086 77.2014 134.941 77.4248C134.796 77.6482 134.588 77.824 134.344 77.9304C134.1 78.0368 133.83 78.0692 133.567 78.0233C133.305 77.9775 133.062 77.8556 132.868 77.6728C132.675 77.4899 132.539 77.2542 132.478 76.9948C132.417 76.7355 132.434 76.4641 132.527 76.2142C132.619 75.9644 132.782 75.7471 132.997 75.5895C133.212 75.4319 133.468 75.3409 133.734 75.3278C133.916 75.3222 134.098 75.3527 134.268 75.4174C134.438 75.4821 134.594 75.5798 134.727 75.7048C134.859 75.8299 134.965 75.9799 135.04 76.1462C135.114 76.3125 135.155 76.4919 135.16 76.674V76.674Z" fill="#263238"/>
<path d="M128.797 76.127L129.733 84.0284L133.805 82.0886L128.797 76.127Z" fill="#F28F8F"/>
<path d="M123.307 93.5685C119.838 93.1086 112.697 91.0392 111.602 88.213C111.602 88.213 111.965 89.9898 114.11 91.821C116.255 93.6521 123.307 95.7299 123.307 95.7299V93.5685Z" fill="#F28F8F"/>
<path d="M109.29 81.5488C109.729 81.5115 110.157 81.388 110.549 81.1854C110.94 80.9829 111.288 80.7052 111.572 80.3682C111.856 80.0312 112.071 79.6416 112.205 79.2215C112.338 78.8015 112.388 78.3592 112.351 77.92C112.313 77.4808 112.19 77.0532 111.987 76.6617C111.785 76.2702 111.507 75.9225 111.17 75.6383C110.833 75.3541 110.443 75.1391 110.023 75.0055C109.603 74.8719 109.161 74.8224 108.722 74.8597L109.29 81.5488Z" fill="#263238"/>
<path d="M137.677 116.006C140.136 114.584 142.126 111.139 142.126 108.301C142.126 105.462 140.136 104.316 137.677 105.734C135.219 107.151 133.233 110.6 133.233 113.434C133.233 116.269 135.223 117.423 137.677 116.006Z" fill="#F28F8F"/>
<path fill-rule="evenodd" clip-rule="evenodd" d="M135.156 114.158C135.302 114.015 135.992 113.321 136.121 113.183C136.187 113.122 136.238 113.047 136.269 112.962C136.3 112.878 136.311 112.788 136.301 112.699C136.301 112.469 136.28 111.862 136.28 111.691C136.279 111.607 136.295 111.524 136.329 111.448C136.363 111.371 136.414 111.303 136.477 111.248C136.838 110.841 137.261 110.494 137.731 110.219C138.083 110.018 138.476 109.896 138.881 109.864C139.023 109.864 139.019 110.01 139.014 110.157C139.01 110.303 139.014 110.47 139.014 110.625C139.014 110.671 139.014 110.708 139.014 110.746C139.023 110.828 139.037 110.909 139.056 110.989C139.077 111.122 139.144 111.152 139.211 111.156C139.278 111.16 139.905 111.281 140.164 111.323C140.423 111.365 140.474 111.177 140.532 111.064C140.591 110.951 140.662 110.834 140.729 110.709C140.829 110.51 140.883 110.291 140.887 110.069C140.951 109.531 140.819 108.988 140.515 108.539C140.423 108.429 140.305 108.343 140.173 108.288C139.863 108.183 139.53 108.173 139.215 108.259C138.046 108.467 136.985 109.074 136.213 109.977C134.855 111.52 134.959 111.649 134.8 112.021C134.569 112.585 134.478 113.196 134.537 113.802C134.654 114.22 134.825 114.408 134.888 114.404C134.951 114.4 135.014 114.308 135.156 114.158Z" fill="white"/>
<path opacity="0.5" d="M125.791 122.866C128.245 121.448 130.239 117.999 130.239 115.165C130.239 112.33 128.245 111.177 125.791 112.598C123.337 114.019 121.343 117.464 121.343 120.299C121.343 123.133 123.337 124.283 125.791 122.866Z" fill="white"/>
<path d="M125.829 119.359C125.24 119.702 124.759 119.338 124.759 118.548V116.073C124.765 115.672 124.864 115.278 125.05 114.923C125.236 114.568 125.503 114.262 125.829 114.029V114.029C126.419 113.686 126.899 114.049 126.899 114.835V117.315C126.893 117.715 126.792 118.109 126.606 118.464C126.421 118.819 126.154 119.125 125.829 119.359V119.359Z" fill="white"/>
<path d="M125.319 120.429C125.082 120.429 124.849 120.361 124.65 120.232C124.404 120.046 124.21 119.8 124.086 119.518C123.961 119.235 123.911 118.926 123.939 118.619C123.939 118.552 123.966 118.488 124.013 118.441C124.06 118.394 124.124 118.368 124.19 118.368C124.257 118.368 124.321 118.394 124.368 118.441C124.415 118.488 124.441 118.552 124.441 118.619C124.417 118.841 124.448 119.066 124.531 119.274C124.614 119.481 124.747 119.666 124.918 119.81C125.039 119.884 125.177 119.924 125.318 119.928C125.46 119.932 125.6 119.898 125.725 119.831C127.192 119.166 127.309 117.427 127.288 116.712C127.288 116.646 127.314 116.581 127.36 116.533C127.405 116.485 127.468 116.456 127.535 116.453V116.453C127.568 116.452 127.6 116.458 127.63 116.471C127.661 116.483 127.689 116.501 127.712 116.524C127.735 116.547 127.754 116.574 127.766 116.604C127.779 116.634 127.786 116.667 127.786 116.7C127.832 118.397 127.138 119.739 125.929 120.291C125.738 120.379 125.53 120.426 125.319 120.429Z" fill="white"/>
<path d="M125.194 121.624C125.138 121.625 125.084 121.606 125.041 121.573C124.997 121.539 124.965 121.492 124.951 121.439C124.937 121.385 124.94 121.329 124.962 121.277C124.983 121.226 125.02 121.184 125.068 121.156L126.322 120.425C126.351 120.408 126.382 120.396 126.415 120.392C126.448 120.387 126.481 120.389 126.513 120.398C126.545 120.406 126.575 120.421 126.601 120.442C126.627 120.462 126.649 120.488 126.665 120.517C126.697 120.575 126.706 120.643 126.689 120.707C126.671 120.771 126.63 120.825 126.573 120.859L125.319 121.591C125.281 121.615 125.238 121.626 125.194 121.624V121.624Z" fill="white"/>
<path opacity="0.5" d="M113.905 129.731C116.359 128.314 118.349 124.865 118.349 122.026C118.349 119.187 116.359 118.042 113.905 119.459C111.451 120.876 109.457 124.326 109.457 127.164C109.457 130.003 111.447 131.148 113.905 129.731Z" fill="white"/>
<path d="M113.354 124.505C113.219 124.506 113.086 124.471 112.969 124.405C112.829 124.312 112.715 124.183 112.642 124.032C112.568 123.88 112.537 123.711 112.551 123.543C112.57 123.149 112.682 122.765 112.879 122.424C113.076 122.082 113.352 121.792 113.684 121.579V121.579C113.816 121.465 113.979 121.396 114.152 121.38C114.325 121.363 114.498 121.401 114.648 121.488C114.799 121.575 114.918 121.706 114.99 121.864C115.062 122.022 115.084 122.198 115.051 122.369C115.033 122.763 114.92 123.147 114.723 123.489C114.526 123.83 114.25 124.12 113.918 124.334C113.748 124.439 113.554 124.498 113.354 124.505V124.505Z" fill="white"/>
<path d="M117.652 121.863C117.623 121.815 117.577 121.78 117.523 121.766C117.469 121.752 117.412 121.76 117.363 121.787L116.882 122.067V121.369C116.881 121.314 116.859 121.262 116.82 121.223C116.781 121.184 116.728 121.161 116.673 121.16C116.618 121.16 116.565 121.182 116.526 121.221C116.486 121.261 116.464 121.314 116.464 121.369V122.306L115.77 122.724C115.731 122.747 115.701 122.782 115.683 122.825C115.666 122.867 115.663 122.914 115.675 122.958C115.687 123.002 115.713 123.041 115.749 123.069C115.785 123.097 115.829 123.112 115.875 123.113C115.912 123.113 115.948 123.103 115.979 123.083L116.464 122.807V123.426C116.464 123.482 116.486 123.535 116.526 123.574C116.565 123.613 116.618 123.635 116.673 123.635C116.728 123.634 116.781 123.612 116.82 123.573C116.859 123.534 116.881 123.481 116.882 123.426V122.565L117.572 122.147C117.62 122.12 117.656 122.074 117.671 122.021C117.686 121.968 117.679 121.911 117.652 121.863V121.863Z" fill="white"/>
<path d="M115.557 124.789C115.317 124.67 115.049 124.618 114.782 124.638C114.515 124.659 114.258 124.751 114.039 124.906L113.416 125.266C112.85 125.629 112.379 126.121 112.042 126.703C111.704 127.285 111.511 127.939 111.477 128.61V129.053C112.091 129.392 112.927 129.333 113.855 128.798C114.845 128.184 115.662 127.328 116.23 126.311V126.202C116.252 125.928 116.201 125.653 116.083 125.405C115.965 125.157 115.783 124.945 115.557 124.789V124.789Z" fill="white"/>
<path opacity="0.5" d="M102.016 136.596C104.474 135.174 106.464 131.725 106.464 128.891C106.464 126.056 104.474 124.906 102.016 126.324C99.5574 127.741 97.5674 131.19 97.5674 134.024C97.5674 136.859 99.5616 138.013 102.016 136.596Z" fill="white"/>
<path d="M102.016 134.526C102.791 134.023 103.435 133.345 103.898 132.546C104.36 131.746 104.626 130.849 104.675 129.927C104.675 128.255 103.484 127.548 102.016 128.393C101.243 128.897 100.6 129.576 100.138 130.375C99.6763 131.174 99.4088 132.07 99.3574 132.992C99.3616 134.689 100.549 135.375 102.016 134.526Z" fill="white"/>
<path opacity="0.3" d="M102.016 56.1968C104.474 54.7796 106.464 51.3305 106.464 48.4918C106.464 45.6531 104.474 44.5076 102.016 45.9249C99.5574 47.3421 97.5674 50.7912 97.5674 53.6299C97.5674 56.4686 99.5616 57.6141 102.016 56.1968Z" fill="white"/>
<path d="M102.016 47.9901C101.243 48.4944 100.6 49.1734 100.138 49.9722C99.6763 50.7711 99.4088 51.6675 99.3574 52.5889C99.3574 53.5964 99.7755 54.2611 100.428 54.4284L100.135 55.8958L101.515 54.374C101.696 54.3107 101.872 54.2295 102.037 54.1315C102.812 53.629 103.456 52.9504 103.918 52.1512C104.381 51.3519 104.647 50.4547 104.696 49.5328C104.675 47.8312 103.484 47.1456 102.016 47.9901Z" fill="white"/>
<path opacity="0.3" d="M113.901 49.3321C116.359 47.9149 118.349 44.4658 118.349 41.6313C118.349 38.7968 116.359 37.6429 113.901 39.0602C111.443 40.4774 109.457 43.9223 109.457 46.7652C109.457 49.608 111.447 50.7494 113.901 49.3321Z" fill="white"/>
<path d="M115.908 40.4314L115.197 40.8495V40.4774C115.197 40.2391 115.072 40.1221 114.917 40.2099L112.89 41.3805C112.8 41.4501 112.728 41.5397 112.68 41.642C112.631 41.7444 112.607 41.8567 112.61 41.9699V42.342L111.899 42.7601C111.714 42.9052 111.565 43.0915 111.464 43.3041C111.363 43.5166 111.313 43.7498 111.318 43.985V47.618C111.318 48.1114 111.577 48.358 111.899 48.1741L115.908 45.858C116.093 45.7124 116.241 45.5261 116.342 45.3136C116.443 45.1011 116.493 44.8682 116.489 44.633V40.9958C116.489 40.4942 116.23 40.2433 115.908 40.4314ZM112.706 45.5611C112.689 45.5825 112.67 45.6009 112.647 45.6155C112.589 45.6448 112.538 45.6155 112.513 45.5779C112.42 45.3382 112.375 45.0825 112.38 44.8253C112.38 43.7049 113.065 42.4005 113.901 41.8989C113.984 41.852 114.071 41.8128 114.161 41.7818L113.914 41.6188C113.88 41.5803 113.859 41.5329 113.852 41.4823C113.845 41.4317 113.854 41.3803 113.876 41.3345C113.922 41.2216 114.006 41.1631 114.064 41.2007L114.625 41.5728C114.644 41.5902 114.659 41.6115 114.669 41.6354C114.679 41.6592 114.684 41.6849 114.683 41.7107C114.683 41.7794 114.666 41.8468 114.633 41.9072L114.11 42.8228C114.097 42.8484 114.078 42.8712 114.056 42.8897C114.048 42.9001 114.038 42.9085 114.027 42.9143C114.015 42.9201 114.002 42.9231 113.989 42.9231C113.976 42.9231 113.963 42.9201 113.952 42.9143C113.94 42.9085 113.93 42.9001 113.922 42.8897C113.898 42.8426 113.885 42.7902 113.885 42.7371C113.885 42.684 113.898 42.6316 113.922 42.5845L114.148 42.1873C114.057 42.2157 113.968 42.2536 113.885 42.3002C113.511 42.5691 113.205 42.9215 112.992 43.3294C112.778 43.7373 112.663 44.1895 112.656 44.6498C112.651 44.8584 112.688 45.0658 112.764 45.2601C112.78 45.3112 112.783 45.3655 112.773 45.4181C112.763 45.4706 112.74 45.5198 112.706 45.5611V45.5611ZM113.901 45.9792C113.818 46.0282 113.73 46.0688 113.638 46.1005L113.868 46.2844C113.895 46.3268 113.91 46.3762 113.91 46.4265C113.91 46.4769 113.895 46.5263 113.868 46.5687C113.852 46.6103 113.826 46.6475 113.793 46.6774C113.776 46.691 113.755 46.6984 113.734 46.6984C113.713 46.6984 113.692 46.691 113.676 46.6774L113.145 46.2593C113.126 46.2402 113.112 46.2171 113.103 46.1918C113.094 46.1665 113.091 46.1396 113.094 46.113C113.095 46.0452 113.114 45.9788 113.149 45.9207L113.709 45.0469C113.772 44.9508 113.855 44.934 113.897 45.0093C113.918 45.0594 113.926 45.1137 113.921 45.1676C113.916 45.2215 113.897 45.2733 113.868 45.3187L113.621 45.7033C113.712 45.6755 113.799 45.6377 113.88 45.5904C114.26 45.3259 114.572 44.975 114.79 44.5666C115.008 44.1581 115.126 43.7038 115.135 43.2409C115.139 43.0336 115.102 42.8275 115.026 42.6347C115.013 42.5822 115.012 42.5272 115.025 42.4746C115.039 42.4221 115.065 42.3736 115.101 42.3337C115.176 42.2459 115.26 42.2417 115.294 42.3337C115.387 42.5718 115.433 42.8262 115.427 43.082C115.427 44.1857 114.742 45.4901 113.901 45.975V45.9792Z" fill="white"/>
<path d="M139.914 23.2988L126.536 31.0121C126.008 31.3552 125.569 31.818 125.255 32.3629C124.94 32.9078 124.759 33.5193 124.726 34.1476V57.4215C124.726 58.5754 125.532 59.0436 126.536 58.4667L139.914 50.7533C140.441 50.4093 140.879 49.9462 141.193 49.4015C141.508 48.8569 141.69 48.2458 141.724 47.6178V24.3439C141.724 23.1901 140.913 22.7218 139.914 23.2988Z" fill="#455A64"/>
<path d="M141.574 48.5414C141.296 49.4532 140.703 50.2368 139.902 50.753L139.153 51.1711L138.798 51.3801C137.615 49.7371 136.574 48.2153 136.574 48.2153C136.247 47.3222 135.968 46.4123 135.738 45.4895V45.4895C135.559 44.7856 135.428 44.0705 135.345 43.349C136.1 43.1206 136.906 43.1206 137.661 43.349C138.413 43.7038 139.033 44.2897 139.429 45.0213C139.856 45.686 140.755 47.1785 141.574 48.5414Z" fill="#E80537"/>
<path d="M139.166 51.1836L138.811 51.3885L135.378 53.3701L134.852 53.6711L127.979 57.6344L127.698 57.7933L127.665 56.6101L128.012 51.1251C128.012 50.0674 128.56 45.8574 128.56 45.8574L130.119 45.2345L131.06 44.8624L131.369 44.7412L131.495 44.691L134.095 43.65C134.266 43.5873 134.434 43.5371 134.592 43.4953C134.644 43.4789 134.697 43.4663 134.751 43.4577C134.954 43.4056 135.161 43.372 135.37 43.3574V43.3574C137.302 43.2069 138.334 44.6576 138.811 46.9778C139.008 48.372 139.127 49.7761 139.166 51.1836Z" fill="#F0F0F0"/>
<path fill-rule="evenodd" clip-rule="evenodd" d="M136.346 48.165C136.455 47.5338 136.486 46.8917 136.44 46.2529H135.529L134.217 46.7282C134.569 47.3221 135.012 47.8574 135.529 48.315C135.542 48.3163 135.555 48.3174 135.568 48.3183L135.529 48.3261C135.653 49.9035 135.734 51.4835 135.772 53.0645L137.658 52.0875C137.348 50.8338 136.924 49.4938 136.346 48.165L136.346 48.165Z" fill="#E80537"/>
<path d="M129.182 52.5632C129.182 52.5632 128.53 55.0717 127.978 57.6344L127.698 57.7975L126.444 58.5207C125.491 59.0099 124.738 58.5207 124.738 57.4212V52.1577C125.089 49.9503 125.491 48.462 126.072 47.4837C126.653 46.5054 127.59 46.2044 128.559 45.8574C129.442 46.5138 129.805 49.6493 129.182 52.5632Z" fill="#E80537"/>
<path d="M141.574 48.5414C141.296 49.4532 140.703 50.2368 139.902 50.753L139.153 51.1711L138.798 51.3801C137.615 49.7371 136.574 48.2153 136.574 48.2153C136.247 47.3222 135.968 46.4123 135.738 45.4895V45.4895C135.559 44.7856 135.428 44.0705 135.345 43.349C136.1 43.1206 136.906 43.1206 137.661 43.349C138.413 43.7038 139.033 44.2897 139.429 45.0213C139.856 45.686 140.755 47.1785 141.574 48.5414Z" fill="#F0F0F0"/>
<path d="M129.182 52.5632C129.182 52.5632 128.53 55.0717 127.978 57.6344L127.698 57.7975L126.444 58.5207C125.491 59.0099 124.738 58.5207 124.738 57.4212V52.1577C125.089 49.9503 125.491 48.462 126.072 47.4837C126.653 46.5054 127.59 46.2044 128.559 45.8574C129.442 46.5138 129.805 49.6493 129.182 52.5632Z" fill="#F0F0F0"/>
<path d="M130.399 33.7129C130.132 33.8115 129.888 33.962 129.68 34.1558C129.472 34.3495 129.304 34.5827 129.187 34.8417C128.902 35.5649 129.003 37.1703 129.383 38.876C129.589 39.9587 129.909 41.0167 130.336 42.0325C130.402 42.1645 130.498 42.2791 130.617 42.367C130.735 42.4549 130.872 42.5136 131.018 42.5383L130.972 40.448L130.905 38.9973C131.35 38.2201 131.655 37.3712 131.808 36.4889C131.925 35.1176 131.678 34.6076 131.678 34.6076L130.399 33.7129Z" fill="#263238"/>
<path d="M130.19 34.0056L128.936 33.5875C128.987 33.3849 129.113 33.209 129.288 33.0945C129.463 32.98 129.674 32.9351 129.88 32.9688C130.056 33.0683 130.186 33.2318 130.243 33.425C130.301 33.6182 130.282 33.8262 130.19 34.0056V34.0056Z" fill="#263238"/>
<path d="M131.833 35.4942C131.833 37.6556 133.367 39.1356 135.24 38.8011C137.113 38.4666 138.631 36.4348 138.627 34.2692C138.622 32.1036 137.096 30.6237 135.219 30.9623C133.342 31.3009 131.829 33.3286 131.833 35.4942Z" fill="#263238"/>
<path d="M130.955 38.7551C130.65 39.1147 130.399 38.3663 130.144 38.1029C129.889 37.8396 129.048 37.5678 128.63 38.659C128.212 39.7501 129.015 41.0336 129.642 41.2594C130.562 41.5896 130.972 40.4483 130.972 40.4483L131.068 45.1683C131.958 46.5688 134.078 46.8615 135.094 46.3807C136.21 45.8581 135.512 45.0011 134.763 44.3698V42.9316C135.279 42.9335 135.793 42.8717 136.294 42.7477C137.13 42.4467 137.548 41.644 137.811 40.5528C138.302 37.991 138.302 35.3594 137.811 32.7976C136.875 32.1287 133.63 32.8394 131.674 34.6204C131.82 37.4842 131.26 38.3956 130.955 38.7551Z" fill="#FFA8A7"/>
<path d="M138.28 30.4098C138.255 30.3596 138.213 30.3136 138.158 30.322C138.113 30.336 138.074 30.3638 138.046 30.4014C137.813 30.653 137.565 30.889 137.301 31.1079C137.366 30.7204 137.366 30.3249 137.301 29.9373C137.264 29.7032 137.205 29.1639 136.95 29.1514C136.8 29.1514 136.67 29.3102 136.557 29.4524C135.533 30.7358 134.204 30.4599 132.974 30.7066C131.946 30.924 130.704 31.6263 130.24 32.8638C130.027 33.4282 129.989 33.9926 130.412 34.2852C130.791 34.5084 131.226 34.6186 131.666 34.603C133.714 34.6532 136.649 35.1088 138.163 32.6381C138.382 32.2727 138.493 31.8519 138.48 31.4257C138.485 31.0749 138.416 30.7272 138.276 30.4056L138.28 30.4098Z" fill="#263238"/>
<path d="M134.759 42.9313C134.759 42.9313 132.89 42.831 132.251 42.5509C131.858 42.3767 131.538 42.0706 131.348 41.6855C131.442 42.0897 131.617 42.4708 131.862 42.8059C132.343 43.4205 134.788 43.5041 134.788 43.5041L134.759 42.9313Z" fill="#F28F8F"/>
<path d="M134.275 37.6515C134.279 37.7663 134.244 37.8791 134.177 37.9722C134.109 38.0653 134.013 38.1333 133.903 38.1657C133.698 38.1992 133.527 38.0319 133.527 37.7811C133.523 37.6663 133.557 37.5535 133.625 37.4604C133.692 37.3673 133.788 37.2992 133.899 37.2669C134.124 37.2334 134.275 37.4048 134.275 37.6515Z" fill="#263238"/>
<path d="M133.873 36.0964L133.075 36.7486C133.021 36.6172 133.01 36.4723 133.043 36.3343C133.076 36.1963 133.152 36.0721 133.259 35.9793C133.303 35.9362 133.356 35.9043 133.415 35.8865C133.474 35.8686 133.536 35.8653 133.597 35.8768C133.657 35.8883 133.714 35.9143 133.762 35.9526C133.81 35.9908 133.849 36.0401 133.873 36.0964Z" fill="#263238"/>
<path d="M134.207 40.1055L135.75 40.4943C135.708 40.7328 135.576 40.9462 135.382 41.0907C135.187 41.2353 134.945 41.3001 134.705 41.2719C134.595 41.2286 134.495 41.164 134.41 41.0818C134.326 40.9995 134.258 40.9013 134.212 40.7927C134.166 40.6842 134.141 40.5676 134.141 40.4496C134.14 40.3316 134.162 40.2146 134.207 40.1055Z" fill="#B16668"/>
<path d="M134.471 40.6319C134.374 40.6325 134.277 40.651 134.187 40.6862C134.209 40.8227 134.27 40.9499 134.362 41.0534C134.453 41.157 134.572 41.2326 134.705 41.2715C134.887 41.3135 135.077 41.2819 135.236 41.1837C135.183 41.0228 135.08 40.8827 134.943 40.7836C134.806 40.6844 134.64 40.6314 134.471 40.6319V40.6319Z" fill="#F28F8F"/>
<path d="M137.468 35.8071L136.736 35.2929C136.759 35.2336 136.795 35.1799 136.84 35.1355C136.886 35.0911 136.94 35.0571 137 35.0356C137.06 35.0142 137.124 35.006 137.187 35.0114C137.251 35.0168 137.312 35.0358 137.368 35.0671C137.469 35.1585 137.535 35.2831 137.554 35.4187C137.572 35.5542 137.542 35.6919 137.468 35.8071V35.8071Z" fill="#263238"/>
<path d="M137.226 36.995C137.23 37.1098 137.195 37.2226 137.128 37.3157C137.061 37.4088 136.964 37.4769 136.854 37.5092C136.645 37.5469 136.478 37.3754 136.478 37.1288C136.474 37.014 136.509 36.9011 136.576 36.8081C136.643 36.715 136.74 36.6469 136.85 36.6146C137.051 36.5769 137.226 36.7483 137.226 36.995Z" fill="#263238"/>
<path d="M135.475 36.9023L135.604 39.4735L136.779 38.8004L135.475 36.9023Z" fill="#F28F8F"/>
<defs>
<filter id="filter0_f_419_2597" x="0" y="121.613" width="294" height="199.955" filterUnits="userSpaceOnUse" color-interpolation-filters="sRGB">
<feFlood flood-opacity="0" result="BackgroundImageFix"/>
<feBlend mode="normal" in="SourceGraphic" in2="BackgroundImageFix" result="shape"/>
<feGaussianBlur stdDeviation="17" result="effect1_foregroundBlur_419_2597"/>
</filter>
<radialGradient id="paint0_radial_419_2597" cx="0" cy="0" r="1" gradientUnits="userSpaceOnUse" gradientTransform="translate(147 221.591) rotate(90.0004) scale(74.3504 127.341)">
<stop stop-color="#911F1F"/>
<stop offset="1" stop-color="#F59A9A" stop-opacity="0.09"/>
</radialGradient>
<linearGradient id="paint1_linear_419_2597" x1="34" y1="173.201" x2="235.754" y2="261.989" gradientUnits="userSpaceOnUse">
<stop stop-color="#FC7A7A"/>
<stop offset="1" stop-color="#6A2C2C"/>
</linearGradient>
<clipPath id="clip0_419_2597">
<rect width="226" height="139.974" fill="white" transform="translate(34 90)"/>
</clipPath>
</defs>
</svg>
